<svg id="SvelteRouterLogo" fill="none" xmlns="http://www.w3.org/2000/svg" viewBox="0 0 160 160"><style>#SvelteRouterLogo {transform-origin: center;animation: 3s forwards spinLogo cubic-bezier(.4,0,.2,1)}@keyframes spinLogo {0% {transform: rotate(0deg)}30% {transform: rotate(-30deg)}50% {transform: rotate(50deg)}80% {transform: rotate(-5deg)}100% {transform: rotate(0deg)}}.indicator {transform-origin: center;animation: 3s forwards spinArrow cubic-bezier(.4,0,.2,1)}@keyframes spinArrow {0% {transform: rotate(5deg)}30% {transform: rotate(-30deg)}70% {transform: rotate(510deg)}100% {transform: rotate(482.5deg)}}</style><circle class="bg" fill="#fff" fill-opacity=".1" cx="80" cy="80" r="74"/><path class="border" fill="#FF3E00" fill-rule="evenodd" clip-rule="evenodd" d="M78.02 10.03 80 8l1.98 2.03a70 70 0 0 1 68 68L152 80l-2.03 1.98a70 70 0 0 1-68 68L80 152l-1.98-2.03a70 70 0 0 1-68-68L8 80l2.03-1.98a70 70 0 0 1 68-68ZM78.6 13A67 67 0 0 0 13 78.6L20 80l-6.99 1.4A67 67 0 0 0 78.6 147L80 140l1.4 6.99A67 67 0 0 0 147 81.4L140 80l6.99-1.4A67 67 0 0 0 81.4 13L80 20l-1.4-6.99Z"/><path class="border-dashes" fill="#676778" fill-opacity=".5" fill-rule="evenodd" clip-rule="evenodd" d="m143.66 86.66-3.98-.41-.1.96 3.96.47.12-1.02Zm-1.14 7.09-3.9-.86-.22.94 3.9.92.22-1Zm-1.93 6.91-3.78-1.29-.32.9 3.76 1.36.34-.97Zm-2.7 6.65-3.61-1.7-.42.86 3.6 1.77.44-.93Zm-3.42 6.3-3.4-2.1-.51.82 3.36 2.16.55-.87Zm-4.11 5.9-3.15-2.48-.6.75 3.1 2.52.65-.8Zm-4.74 5.38-2.86-2.8-.68.67 2.81 2.86.73-.73Zm-5.32 4.83-2.52-3.1-.75.6 2.47 3.14.8-.64Zm-5.81 4.2-2.16-3.36-.81.5 2.1 3.41.87-.55Zm-6.25 3.53-1.77-3.59-.87.42 1.71 3.62.93-.45Zm-6.61 2.8-1.35-3.76-.91.32 1.3 3.78.96-.34Zm-6.88 2.04-.92-3.9-.94.22.86 3.91 1-.23Zm-7.07 1.25-.47-3.97c-.32.04-.64.08-.96.1l.4 3.99c.35-.04.69-.07 1.03-.12Zm-14.34.12.41-3.98a60.4 60.4 0 0 1-.95-.1l-.48 3.96 1.02.12Zm-7.09-1.14.86-3.9-.94-.22-.92 3.9a66 66 0 0 0 1 .22Zm-6.91-1.93 1.29-3.78-.9-.32-1.36 3.76.97.34Zm-6.65-2.7 1.7-3.61a54.3 54.3 0 0 1-.86-.42l-1.77 3.6.93.44Zm-6.3-3.42 2.1-3.4-.82-.51-2.16 3.36.87.55Zm-5.9-4.11 2.48-3.15-.75-.6-2.52 3.1.8.65Zm-5.38-4.74 2.8-2.86-.67-.68-2.86 2.81.73.73Zm-4.83-5.32 3.1-2.52-.6-.75-3.14 2.47.64.8Zm-4.2-5.81 3.37-2.16-.52-.81-3.4 2.1.55.87Zm-3.53-6.25 3.59-1.77-.42-.87-3.62 1.71.45.93Zm-2.8-6.61 3.76-1.35-.32-.91-3.78 1.3.34.96Zm-2.04-6.88 3.9-.92-.22-.94-3.91.86.23 1Zm-1.25-7.07 3.97-.47a59 59 0 0 1-.1-.96l-3.99.4.12 1.03Zm-.12-14.34 3.98.41.1-.95-3.96-.48-.12 1.02Zm1.14-7.09 3.9.86.22-.94-3.9-.92-.22 1Zm1.93-6.91 3.78 1.29.32-.9-3.76-1.36-.34.97Zm2.7-6.65 3.61 1.7.42-.86-3.59-1.77-.45.93Zm3.42-6.3 3.4 2.1.52-.82-3.37-2.16-.55.87Zm4.11-5.9 3.15 2.48.6-.75-3.1-2.52-.65.8Zm4.74-5.38 2.85 2.8.69-.68-2.81-2.85-.73.73Zm5.32-4.83 2.52 3.1.75-.6-2.47-3.14-.8.64Zm5.81-4.2 2.16 3.37.82-.52-2.1-3.4-.88.55Zm6.25-3.53 1.77 3.59.87-.42-1.71-3.62-.93.45Zm6.61-2.8 1.35 3.76.91-.32-1.29-3.78c-.32.1-.65.22-.97.34Zm6.88-2.04.92 3.9.94-.22-.86-3.91-1 .23Zm7.07-1.25.48 3.97c.31-.04.63-.08.95-.1l-.4-3.99-1.03.12Zm14.34-.12-.41 3.98.96.1.47-3.96a64.8 64.8 0 0 0-1.02-.12Zm7.09 1.14-.86 3.9.94.22.92-3.9-1-.22Zm6.91 1.93-1.29 3.78.9.32 1.36-3.76-.97-.34Zm6.65 2.7-1.7 3.61.86.42 1.77-3.6-.93-.44Zm6.3 3.42-2.1 3.4.82.52 2.16-3.37-.87-.55Zm5.9 4.11-2.48 3.15.75.6 2.52-3.1-.8-.65Zm5.38 4.74-2.8 2.85.67.69 2.86-2.81-.73-.73Zm4.83 5.32-3.1 2.52.6.75 3.14-2.47-.64-.8Zm4.2 5.81-3.36 2.16.5.82 3.41-2.1-.55-.88Zm3.53 6.25-3.59 1.77.42.87 3.62-1.71-.45-.93Zm2.8 6.61-3.76 1.35.32.91 3.78-1.3a63.5 63.5 0 0 0-.34-.96Zm2.04 6.88-3.89.92.21.94 3.91-.86a66 66 0 0 0-.23-1Zm1.25 7.07-3.97.48c.04.31.08.63.1.95l3.99-.4c-.04-.35-.07-.69-.12-1.03Z"/><path class="center-star" fill="#D4D4DC" d="M83.51 72.16 80 44.64l-3.51 27.52L65 65l7.16 11.49L44.64 80l27.52 3.51L65 95l11.49-7.16L80 115.36l3.51-27.52L95 95l-7.16-11.49L115.36 80l-27.52-3.51L95 65l-11.49 7.16Z"/><path class="font" fill="#676778" d="M42.83 121.65a.25.25 0 0 1-.08-.22l.42-3.2a.27.27 0 0 0-.1-.23l-.17-.16-1.46-1.31a.25.25 0 0 0-.35.01l-1.58 1.75c-.1.1-.25.1-.36.01l-.97-.88a.25.25 0 0 1-.02-.36l6.25-6.88c.1-.1.25-.11.36-.02l2.8 2.55a5.38 5.38 0 0 1 1.35 1.8c.28.63.37 1.25.27 1.86-.1.62-.4 1.19-.88 1.72-.5.55-1.06.9-1.69 1.04-.52.14-1.07.12-1.63-.05a.27.27 0 0 0-.35.21l-.4 3.11a.25.25 0 0 1-.4.15l-1-.9Zm4.12-4.8c.42-.46.6-.95.52-1.47-.08-.53-.41-1.06-1-1.6l-1.4-1.25a.25.25 0 0 0-.35.01l-2.29 2.52c-.09.1-.08.26.02.36l1.4 1.26c.58.53 1.14.81 1.67.84a1.8 1.8 0 0 0 1.43-.66ZM55.19 129.55a5.64 5.64 0 0 1-2.2-1.7 4.89 4.89 0 0 1-.5-5.08 4.92 4.92 0 0 1 4.16-2.9c.92-.07 1.83.1 2.73.52.91.41 1.64.99 2.19 1.72a4.79 4.79 0 0 1 .51 5.06 4.95 4.95 0 0 1-4.17 2.92c-.9.06-1.82-.12-2.72-.54Zm.66-1.45c.6.27 1.19.39 1.79.34.6-.05 1.14-.25 1.63-.6.5-.36.87-.84 1.15-1.44.27-.59.38-1.19.32-1.79a3.13 3.13 0 0 0-.6-1.63 3.49 3.49 0 0 0-1.42-1.14 3.5 3.5 0 0 0-1.8-.33c-.59.05-1.13.25-1.62.61a3.5 3.5 0 0 0-1.15 1.42c-.27.6-.38 1.2-.33 1.8.05.6.26 1.14.6 1.63.36.48.84.86 1.43 1.13ZM71.81 134.26a4.28 4.28 0 0 1-3.02-1.48c-.66-.84-.92-1.97-.76-3.38l.6-5.25a.25.25 0 0 1 .27-.22l1.31.15c.14.02.24.14.22.28l-.58 5.17c-.22 1.91.5 2.96 2.15 3.15 1.64.18 2.57-.68 2.79-2.6l.58-5.17a.25.25 0 0 1 .28-.22l1.28.14c.14.02.24.14.22.28l-.59 5.25c-.16 1.4-.66 2.45-1.5 3.13-.82.66-1.9.92-3.25.77ZM85.74 125.98a.25.25 0 0 0-.29-.2l-2.7.48a.25.25 0 0 1-.29-.2l-.18-1.03a.25.25 0 0 1 .2-.28l7.7-1.38c.13-.03.26.06.28.2l.19 1.02a.25.25 0 0 1-.2.3l-2.71.48a.25.25 0 0 0-.2.29l1.37 7.63a.25.25 0 0 1-.2.3l-1.3.23a.25.25 0 0 1-.3-.2l-1.37-7.64ZM105.05 126.17c.12-.06.27 0 .33.12l.45.92c.06.13 0 .28-.12.34l-6.18 2.97a.25.25 0 0 1-.33-.12l-4.03-8.38a.25.25 0 0 1 .12-.34l6-2.88c.12-.06.27 0 .33.12l.44.92c.06.13.01.28-.11.34l-4.36 2.1a.25.25 0 0 0-.12.33l.89 1.84c.06.13.21.18.33.12l3.82-1.84c.12-.06.27 0 .33.12l.43.9c.06.13.01.27-.11.33l-3.82 1.84a.25.25 0 0 0-.11.33l.95 1.99c.06.12.2.17.33.11l4.54-2.18ZM117.69 118.47a.25.25 0 0 1-.23.06l-3.14-.71a.27.27 0 0 0-.24.07l-.17.16-1.45 1.32c-.1.1-.11.25-.02.35l1.58 1.75c.1.1.09.25-.01.35l-.98.89c-.1.09-.26.08-.35-.02l-6.26-6.88a.25.25 0 0 1 .02-.36l2.8-2.54a5.38 5.38 0 0 1 1.92-1.18 3.22 3.22 0 0 1 1.89-.09c.6.17 1.14.51 1.62 1.04.5.55.79 1.14.88 1.78.08.54 0 1.08-.21 1.63-.06.15.02.32.18.36l3.05.69c.2.04.27.3.12.43l-1 .9Zm-4.38-4.55c-.42-.47-.9-.68-1.42-.66-.53.03-1.09.31-1.68.85l-1.39 1.26c-.1.1-.1.25-.01.35l2.29 2.52c.09.1.25.11.35.02l1.39-1.26c.59-.54.92-1.07 1-1.6a1.8 1.8 0 0 0-.53-1.48ZM47.77 48.89c-.56.51-1.17.93-1.84 1.25-.59.28-1.13.44-1.62.48a.24.24 0 0 1-.24-.16l-.33-.99a.27.27 0 0 1 .21-.34 5.4 5.4 0 0 0 2.8-1.35 3 3 0 0 0 .96-1.36c.1-.42.03-.77-.23-1.05a.86.86 0 0 0-.69-.3c-.27 0-.55.06-.85.2-.3.13-.68.32-1.16.59-.67.37-1.24.65-1.7.84-.46.18-.94.24-1.44.2a2.3 2.3 0 0 1-1.4-.81c-.37-.4-.6-.86-.68-1.38-.08-.53 0-1.1.27-1.68.26-.6.7-1.19 1.34-1.77.44-.4.92-.74 1.45-1.02.46-.25.9-.41 1.34-.5.12-.03.23.04.27.15l.36.97c.06.14-.03.3-.18.34a5.61 5.61 0 0 0-2.23 1.19c-.53.48-.84.94-.94 1.35-.09.42 0 .77.27 1.07.2.2.42.3.68.3.27 0 .56-.08.85-.2.3-.14.69-.34 1.17-.6.65-.37 1.2-.64 1.68-.82.46-.19.94-.25 1.43-.2.5.05.97.3 1.4.78.36.4.59.86.66 1.38.09.52 0 1.08-.27 1.67-.26.6-.71 1.19-1.34 1.77ZM59.45 29.96c.16-.07.35.04.35.22l.31 10.14c0 .1-.05.2-.14.24l-1.33.62a.25.25 0 0 1-.27-.04l-7.65-6.67a.25.25 0 0 1 .06-.41l1.3-.61c.08-.04.19-.03.26.04l5.63 4.95c.16.14.42.02.41-.2l-.23-7.5c0-.1.05-.19.14-.23l1.16-.55ZM77.03 34.57c.14-.01.27.08.28.22l.14 1.02a.25.25 0 0 1-.22.28l-6.79.89a.25.25 0 0 1-.28-.22l-1.2-9.22a.25.25 0 0 1 .2-.28l6.6-.86c.14-.02.27.07.28.21l.14 1.02a.25.25 0 0 1-.22.28l-4.79.63a.25.25 0 0 0-.22.28l.27 2.03c.02.14.14.23.28.21l4.2-.55c.13-.01.26.08.28.22l.13.99a.25.25 0 0 1-.22.28l-4.2.55a.25.25 0 0 0-.21.28l.29 2.18c.01.14.14.24.28.22l4.98-.66ZM86.07 26.8a.25.25 0 0 1 .28-.2l1.3.2c.14.03.24.16.21.3l-1.24 7.65c-.02.14.07.27.21.3l4.57.73c.13.02.22.15.2.29l-.16 1.02a.25.25 0 0 1-.3.21l-6.35-1.03a.25.25 0 0 1-.2-.29l1.48-9.18ZM102.79 32.95a.25.25 0 0 0-.12-.33l-2.48-1.18a.25.25 0 0 1-.12-.33l.44-.94c.06-.13.21-.18.33-.12l7.07 3.34c.13.06.18.2.12.33l-.44.94a.25.25 0 0 1-.34.12l-2.48-1.17a.25.25 0 0 0-.33.12l-3.32 7.01a.25.25 0 0 1-.33.12l-1.2-.56a.25.25 0 0 1-.12-.33l3.32-7.02ZM115.53 49.52c.1.09.12.25.02.35l-.68.76c-.1.1-.25.11-.36.02l-5.09-4.58a.25.25 0 0 1-.02-.35l6.22-6.92c.1-.1.25-.1.35-.02l4.95 4.45c.1.1.11.25.02.36l-.69.76c-.09.1-.25.1-.35.02l-3.6-3.24a.25.25 0 0 0-.35.02l-1.37 1.53c-.09.1-.08.26.02.35l3.15 2.83c.1.1.11.25.02.35l-.67.74c-.1.1-.25.12-.35.02l-3.15-2.83a.25.25 0 0 0-.35.02l-1.47 1.64c-.1.1-.09.26.01.35l3.74 3.37Z"/><path d="M6 17.9a8 8 0 0 1-2.2-7.82 7.91 7.91 0 0 1 2.1-3.6 7.91 7.91 0 0 1 7.76-2.06 8.28 8.28 0 0 1 3.7 2.2 8.3 8.3 0 0 1 2.2 3.66 7.83 7.83 0 0 1-2.06 7.73 7.94 7.94 0 0 1-7.81 2.08 8.24 8.24 0 0 1-3.68-2.18Zm.6-.58a7.32 7.32 0 0 0 7 1.97 7.08 7.08 0 0 0 3.27-1.9 6.97 6.97 0 0 0 1.85-6.89 7.25 7.25 0 0 0-1.95-3.3 7.5 7.5 0 0 0-3.33-1.97 7.1 7.1 0 0 0-6.93 1.86 7.17 7.17 0 0 0-1.9 3.24 7.33 7.33 0 0 0 1.98 6.99Zm1.88-1.59a5.2 5.2 0 0 1-1.34-2.17A4.52 4.52 0 0 1 8.41 9a4.7 4.7 0 0 1 2.16-1.28c.8-.22 1.6-.2 2.4.03.81.23 1.54.67 2.18 1.32.56.55.95 1.17 1.17 1.84.25.67.31 1.34.2 2l-1.22-.2c.08-.54.04-1.04-.14-1.52a3.63 3.63 0 0 0-.86-1.3 3.43 3.43 0 0 0-2.46-1.08c-.91 0-1.75.37-2.5 1.12a3.47 3.47 0 0 0-1.12 2.5c0 .93.37 1.75 1.08 2.46.39.4.82.68 1.3.86.48.17.99.22 1.53.14l.2 1.2c-.67.12-1.34.07-2.02-.16a4.88 4.88 0 0 1-1.83-1.19ZM30.06 19.4l4.67 4.67A9.72 9.72 0 0 1 37.2 28c.46 1.4.52 2.79.17 4.15a7.75 7.75 0 0 1-2.13 3.68 7.87 7.87 0 0 1-3.69 2.15 7.56 7.56 0 0 1-4.15-.17 9.9 9.9 0 0 1-3.91-2.5l-4.67-4.67L30.06 19.4Zm-5.6 14.81c1 1 2.07 1.7 3.21 2.06a6.2 6.2 0 0 0 3.37.13 6.47 6.47 0 0 0 3.01-1.77c.9-.9 1.49-1.9 1.76-3a5.99 5.99 0 0 0-.13-3.37 7.9 7.9 0 0 0-2.05-3.23l-3.39-3.39-9.17 9.18 3.39 3.39ZM43.63 38.43c1.12 1.12 1.7 2.26 1.75 3.42.05 1.14-.46 2.26-1.54 3.34l-5.23 5.23-1.11-1.12L38.8 48c-.7.17-1.43.13-2.19-.14a5.74 5.74 0 0 1-2.17-1.43 5.08 5.08 0 0 1-1.62-2.97c-.11-1.01.2-1.89.93-2.63a3.04 3.04 0 0 1 2.52-.94c.98.1 2.04.72 3.2 1.88l2.73 2.73.52-.51c.72-.73 1.07-1.49 1.03-2.28-.03-.8-.45-1.6-1.24-2.4a6.48 6.48 0 0 0-3.86-1.86l.32-1.38c.8.08 1.6.32 2.4.74.82.4 1.57.95 2.25 1.63Zm-8.1 7.27a4.46 4.46 0 0 0 2.12 1.26c.77.17 1.55.09 2.33-.24l1.38-1.38-2.7-2.7c-1.47-1.47-2.71-1.7-3.72-.7-.49.49-.69 1.07-.6 1.74.1.66.5 1.33 1.2 2.02ZM54.66 49.46a4.97 4.97 0 0 1 1.64 3.5c.03 1.25-.54 2.47-1.72 3.65L49.7 61.5l-1.16-1.16 4.78-4.78c.88-.88 1.32-1.77 1.33-2.68.02-.9-.4-1.78-1.22-2.6a4.23 4.23 0 0 0-3.03-1.4c-1.07 0-2.08.48-3.03 1.43l-4.43 4.43-1.16-1.17 8.44-8.43 1.1 1.11-1.55 1.56c.83-.2 1.67-.16 2.5.12.86.28 1.66.79 2.4 1.53ZM61.29 56.22l1.16 1.16L54 65.82l-1.16-1.17 8.44-8.43Zm2.43-1.26a1.18 1.18 0 0 1-.03-1.67c.21-.21.48-.32.8-.31.33 0 .61.12.85.36s.36.52.37.85a1 1 0 0 1-.3.79 1.18 1.18 0 0 1-1.69-.02ZM68.61 72.68l-7.2-7.2c-.82.94-1.18 2-1.1 3.17.08 1.15.6 2.2 1.55 3.16a4.67 4.67 0 0 0 3.74 1.53l-.08 1.39a5.2 5.2 0 0 1-2.47-.42 6.89 6.89 0 0 1-2.23-1.53 7.02 7.02 0 0 1-1.82-2.9 5.8 5.8 0 0 1 1.6-5.92 6.37 6.37 0 0 1 2.75-1.67 5.66 5.66 0 0 1 3.03-.02c1 .28 1.91.82 2.7 1.62.8.8 1.34 1.7 1.6 2.69.28 1 .26 2-.03 3.01-.28 1-.84 1.92-1.67 2.76l-.37.33Zm-.5-7.81a4.2 4.2 0 0 0-5.85-.24l6.1 6.1a4.22 4.22 0 0 0-.25-5.86ZM79.03 67.03l1.16 1.16-11.9 11.9-1.16-1.16 11.9-11.9ZM79.12 91.12a10.7 10.7 0 0 1-2.06-2.86c-.5-1.04-.75-2-.74-2.86l1.39-.44c0 .82.23 1.7.66 2.65a8.87 8.87 0 0 0 1.76 2.5c1.02 1.02 1.98 1.61 2.85 1.76.89.14 1.63-.09 2.22-.68.44-.44.66-.94.64-1.5 0-.54-.14-1.08-.4-1.62-.26-.55-.66-1.28-1.2-2.17a27.42 27.42 0 0 1-1.46-2.67 5 5 0 0 1-.41-2.24 3.4 3.4 0 0 1 1.11-2.2 3.85 3.85 0 0 1 2-1.08A4.4 4.4 0 0 1 88 78c.91.35 1.84 1 2.77 1.94a9.6 9.6 0 0 1 2.56 4.55l-1.35.53a7.79 7.79 0 0 0-.85-2.22 8.02 8.02 0 0 0-1.37-1.85c-1-1-1.95-1.57-2.85-1.7-.88-.13-1.61.11-2.21.7a2.1 2.1 0 0 0-.68 1.5c.01.56.15 1.12.42 1.68.29.57.7 1.29 1.24 2.17a22.25 22.25 0 0 1 1.42 2.64c.33.72.47 1.46.42 2.23-.03.75-.4 1.47-1.08 2.16-.56.56-1.24.92-2.03 1.08-.76.15-1.6.05-2.53-.32a8.77 8.77 0 0 1-2.77-1.97ZM89.37 101.34a6.74 6.74 0 0 1-1.75-2.84 5.69 5.69 0 0 1-.04-3.1 6.2 6.2 0 0 1 1.65-2.8 6.08 6.08 0 0 1 2.79-1.64 5.69 5.69 0 0 1 3.1.05c1.04.31 1.98.9 2.83 1.74a6.19 6.19 0 0 1 1.55 2.42c.31.87.36 1.74.16 2.63l-1.45-.3c.14-.7.08-1.37-.15-2a4.84 4.84 0 0 0-3.2-3.01 4.13 4.13 0 0 0-2.32-.02 5 5 0 0 0-2.13 1.31 5.05 5.05 0 0 0-1.32 2.14c-.21.78-.2 1.55 0 2.32a5 5 0 0 0 3.02 3.2c.64.24 1.31.29 2.01.16l.3 1.44a4.7 4.7 0 0 1-2.65-.14 6.47 6.47 0 0 1-2.4-1.56ZM107.87 102.67a4.97 4.97 0 0 1 1.64 3.5c.03 1.25-.54 2.47-1.71 3.65l-4.9 4.89-1.16-1.16 4.78-4.78c.88-.88 1.32-1.77 1.34-2.68 0-.9-.4-1.78-1.23-2.6a4.22 4.22 0 0 0-3.03-1.4c-1.07 0-2.08.48-3.03 1.43l-4.43 4.43-1.16-1.16 11.9-11.9 1.16 1.15-4.94 4.95c.81-.18 1.63-.12 2.45.17.83.29 1.6.8 2.32 1.51ZM117.57 112.38c1.13 1.12 1.71 2.26 1.76 3.42.05 1.14-.46 2.26-1.54 3.34l-5.23 5.23-1.12-1.12 1.32-1.31c-.7.17-1.43.13-2.19-.14a5.73 5.73 0 0 1-2.17-1.43 5.08 5.08 0 0 1-1.62-2.97c-.11-1.01.2-1.9.93-2.63a3.04 3.04 0 0 1 2.52-.95c.97.1 2.04.73 3.2 1.88l2.73 2.74.51-.52c.73-.72 1.08-1.48 1.03-2.27-.03-.8-.44-1.6-1.23-2.4a6.47 6.47 0 0 0-3.86-1.86l.32-1.38c.8.07 1.6.32 2.4.74.82.4 1.57.95 2.24 1.63Zm-8.09 7.27a4.46 4.46 0 0 0 2.12 1.25c.77.17 1.55.1 2.33-.23l1.38-1.38-2.7-2.7c-1.47-1.48-2.71-1.71-3.72-.7-.5.49-.69 1.07-.6 1.74.1.66.5 1.33 1.19 2.02ZM123.61 121.85c.84-.3 1.68-.32 2.5-.07.83.26 1.65.78 2.45 1.58l-1.11 1.1-.26-.29a3.93 3.93 0 0 0-2.95-1.3 4.55 4.55 0 0 0-3.06 1.52l-4.3 4.3-1.16-1.17 8.43-8.44 1.12 1.12-1.66 1.65ZM129.59 132.92l-3.86-.2-2.4 2.4-1.17-1.15 11.9-11.9 1.17 1.16-8.07 8.06 9.74.54 1.44 1.44-7.13-.23-.96 9.02-1.43-1.43.77-7.7ZM135.08 147.05a6.51 6.51 0 0 1-1.7-2.79 5.85 5.85 0 0 1 1.61-5.9 6.1 6.1 0 0 1 2.79-1.64 5.7 5.7 0 0 1 3.1.05 6.5 6.5 0 0 1 2.78 1.7 6.5 6.5 0 0 1 1.7 2.78c.3 1.03.31 2.06.03 3.08a6.09 6.09 0 0 1-1.64 2.79 6.08 6.08 0 0 1-2.78 1.64 5.68 5.68 0 0 1-3.1-.01 6.5 6.5 0 0 1-2.79-1.7Zm1.01-1.01a4.68 4.68 0 0 0 2.04 1.23c.77.22 1.54.2 2.32-.02a5.01 5.01 0 0 0 2.12-1.3 5.01 5.01 0 0 0 1.31-2.13c.23-.78.23-1.55 0-2.3-.2-.76-.6-1.45-1.21-2.06a4.66 4.66 0 0 0-2.07-1.24 4.17 4.17 0 0 0-2.3.01c-.78.23-1.49.67-2.13 1.31a5.01 5.01 0 0 0-1.3 2.13 4.33 4.33 0 0 0-.03 2.31 4.8 4.8 0 0 0 1.25 2.06ZM157.34 152.27l-12.27 4.6-1.2-1.19 4.63-12.25 1.21 1.21-3.96 10.41 10.44-3.93 1.15 1.15Z"/><g class="indicator"><path fill="#FF3E00" class="indicator-arrow" d="m80 22 7 58-7 58-7-58 7-58Z"/><path fill="#fff" stroke="#FF3E00" class="indicator-nop" d="M88.5 79h-5.15a3.5 3.5 0 0 0-6.7 0H71.5a1 1 0 1 0 0 2h5.15a3.5 3.5 0 0 0 6.7 0h5.15a1 1 0 1 0 0-2Z"/></g></svg>
