<svg fill="none" xmlns="http://www.w3.org/2000/svg" viewBox="0 0 600 160"><g clip-path="url(#a)"><path fill-rule="evenodd" clip-rule="evenodd" d="m549.16 16.36-1.03-2.64-2.61 1.1a70 70 0 0 0-89.16 36.02l-2.64 1.03 1.1 2.61a70 70 0 0 0 36.02 89.16l1.03 2.64 2.61-1.1a70 70 0 0 0 89.16-36.02l2.64-1.03-1.1-2.61a70 70 0 0 0-36.02-89.16Zm36.59 91.55-1-2.38.06-.16A69.6 69.6 0 0 0 549 16.73l-.15-.07-.94-2.4-2.38.99-.16-.06A69.6 69.6 0 0 0 456.73 51l-.07.14-2.4.94.99 2.39-.06.15A69.6 69.6 0 0 0 491 143.27l.15.07.94 2.4 2.39-.99.15.06A69.6 69.6 0 0 0 583.27 109l.07-.15 2.4-.94Zm-40.41-90.37-1.1 5.36 3.09-4.51.3.13a67.4 67.4 0 0 1 34.95 86.5l-.12.32-5.36-1.1 4.51 3.08-.13.31a67.4 67.4 0 0 1-86.5 34.95l-.32-.12 1.1-5.36-3.08 4.51-.31-.13a67.4 67.4 0 0 1-34.95-86.51l.12-.31 5.36 1.1-4.51-3.08.13-.31a67.4 67.4 0 0 1 86.51-34.95l.31.12Zm-80.57 39.02-6.98-1.44a67 67 0 0 0 34.74 86l4.03-5.89-1.44 6.98a67 67 0 0 0 86-34.74l-5.89-4.03 6.98 1.44a67 67 0 0 0-34.74-86l-4.03 5.89 1.44-6.98a67 67 0 0 0-86 34.74l5.89 4.03Z" fill="#FF3E00"/><path fill-rule="evenodd" clip-rule="evenodd" d="m576.34 110.9-.13.22-.5.9-.13.22-3.9-2.24.13-.22.47-.83.12-.22 3.94 2.17Zm-3.81 6.12-.15.2-.6.84-.15.2-3.63-2.66.15-.2c.2-.26.38-.52.56-.78l.15-.2 3.67 2.6Zm-4.47 5.65-.17.19-.7.76-.16.19-3.3-3.06.16-.18.65-.71.16-.19 3.36 3Zm-5.08 5.11-.2.17-.76.68-.2.16-2.93-3.4.19-.17.71-.63.2-.17 2.99 3.36Zm-5.63 4.5-.2.15-.85.6-.2.13-2.54-3.71.2-.14.79-.55.2-.14 2.6 3.67Zm-6.09 3.86-.22.12-.9.49-.23.11-2.1-3.97.22-.12.84-.45.22-.13 2.17 3.95Zm-6.48 3.14-.23.1-.96.38-.23.1-1.65-4.2.23-.08.89-.36.23-.1 1.72 4.16Zm-6.8 2.4-.24.07c-.33.1-.66.2-.99.28l-.24.07-1.18-4.35.25-.06.92-.26.24-.07 1.24 4.32Zm-7.01 1.64-.25.04-1.02.16-.25.04-.68-4.45.25-.04.94-.15.25-.04.75 4.44Zm-7.16.83-.25.02-1.03.05h-.25l-.18-4.5h.25l.96-.05.25-.01.25 4.5Zm-7.2.03-.26-.02a71.7 71.7 0 0 1-1.02-.06l-.25-.02.32-4.49.25.02.96.06.25.02-.26 4.49Zm-7.17-.79-.25-.04a59.9 59.9 0 0 1-1.01-.18l-.25-.05.84-4.42.24.05.94.16.25.05-.76 4.43Zm-7.03-1.59-.24-.07-.99-.3-.24-.07 1.33-4.3.24.08c.3.1.6.18.92.27l.24.07-1.26 4.32Zm-13.31-5.46-.22-.13-.9-.5-.22-.13 2.24-3.9.22.12.83.47.22.13-2.17 3.94Zm-6.12-3.81-.2-.15-.84-.6-.2-.15 2.66-3.63.2.15c.26.2.52.38.78.56l.2.15-2.6 3.67Zm-5.65-4.47-.19-.17-.76-.7-.18-.16 3.05-3.3.18.16.71.64.19.17-3 3.36Zm-5.11-5.09-.17-.18-.68-.78-.16-.19 3.4-2.93.17.19.63.72.17.18-3.36 3Zm-4.5-5.62-.15-.2-.6-.85-.13-.2 3.71-2.54.14.2.55.79.15.2-3.68 2.6Zm-3.86-6.09-.12-.22-.49-.9-.11-.23 3.97-2.1.12.22.45.84.13.22-3.95 2.17Zm-3.14-6.48-.1-.23a61.4 61.4 0 0 1-.38-.96l-.1-.23 4.2-1.66.08.24.36.89.1.23-4.16 1.72Zm-2.4-6.8-.07-.24c-.1-.33-.2-.66-.28-.99l-.07-.24 4.35-1.18.06.25.26.92.07.24-4.32 1.24Zm-1.63-7.02-.05-.24-.16-1.02-.04-.25 4.45-.68.04.25.15.94.04.25-4.44.75Zm-.84-7.15-.02-.25-.04-1.03-.02-.25 4.5-.18.01.25.05.96.01.24-4.5.26Zm-.03-7.2.02-.26.06-1.03.02-.24 4.49.32-.02.25-.06.96-.01.25-4.5-.26Zm.79-7.17.04-.25.18-1.01.05-.25 4.42.84-.04.24-.17.94-.05.25-4.43-.76Zm1.59-7.03.07-.24.3-.99.07-.24 4.3 1.33-.08.23-.27.93-.07.24-4.32-1.26Zm5.47-13.31.12-.22.5-.9.13-.22 3.9 2.24-.12.22-.47.83-.13.22-3.94-2.17Zm3.8-6.12.15-.2.6-.84.15-.2L472 44.4l-.15.2-.56.78-.15.2-3.67-2.6Zm4.47-5.65.17-.19.7-.76.16-.18 3.3 3.05-.16.18-.65.71-.16.19-3.36-3Zm5.08-5.11.2-.17.77-.68.19-.16 2.94 3.4-.2.17-.71.63-.2.17-2.99-3.36Zm5.63-4.5.2-.15.85-.6.2-.13 2.54 3.71-.2.14-.79.55-.2.15-2.6-3.68Zm6.1-3.86.21-.12.9-.49.23-.11 2.1 3.97-.22.12-.84.45-.22.12-2.17-3.94Zm6.47-3.14.23-.1.96-.38.23-.1 1.66 4.2-.24.08-.89.36-.23.1-1.72-4.16Zm6.8-2.4.24-.07c.33-.1.66-.2.99-.28l.24-.07 1.18 4.35-.24.06-.93.26-.24.07-1.24-4.32Zm7.02-1.64.24-.04 1.02-.16.25-.04.68 4.45-.25.04-.94.15-.25.04-.75-4.44Zm7.15-.83.25-.02a65 65 0 0 1 1.03-.05h.25l.18 4.5h-.25l-.95.05-.25.01-.26-4.5Zm7.2-.03.26.02 1.03.06.25.02-.33 4.49-.25-.02-.96-.06-.25-.02.26-4.49Zm7.17.79.25.04 1.01.18.25.05-.84 4.42-.24-.04-.94-.17-.25-.05.76-4.43Zm7.03 1.59.24.07.99.3.24.07-1.32 4.3-.24-.08-.92-.27-.25-.07 1.26-4.32Zm13.31 5.46.22.13.9.5.22.13-2.24 3.9-.22-.12-.83-.48-.22-.12 2.17-3.94Zm6.12 3.81.2.15.84.6.2.15L555.6 32l-.2-.15c-.26-.19-.51-.38-.78-.56l-.2-.15 2.6-3.67Zm5.65 4.47.19.17.76.7.18.16-3.05 3.3-.18-.16a66.1 66.1 0 0 0-.71-.65l-.19-.16 3-3.36Zm5.11 5.08.17.2.68.77.16.19-3.4 2.93-.17-.18c-.2-.25-.42-.49-.63-.72l-.17-.2 3.36-2.99Zm4.5 5.63.15.2.6.85.13.2-3.71 2.54-.14-.2-.55-.79-.14-.2 3.67-2.6Zm3.86 6.1.12.21.49.9.12.23-3.98 2.1-.12-.22-.45-.84-.12-.22 3.94-2.17Zm3.14 6.47.1.23.38.96.1.23-4.2 1.65-.08-.23-.36-.89-.1-.23 4.16-1.72Zm2.4 6.8.07.24c.1.33.2.66.28.99l.07.24-4.35 1.18-.06-.24-.26-.93-.07-.24 4.32-1.24Zm1.64 7.02.04.24.16 1.02.04.25-4.45.68-.03-.25-.16-.94-.04-.25 4.44-.75Zm.83 7.15.02.25.05 1.03v.25l-4.5.18v-.25l-.05-.96-.01-.24 4.5-.26Zm.03 7.2-.02.26-.06 1.03-.02.24-4.49-.32.02-.25.06-.96.02-.25 4.49.26Zm-.79 7.17-.04.25-.18 1.01-.05.25-4.42-.84.04-.24.17-.94.05-.25 4.43.76Zm-1.59 7.03-.07.24-.3.99-.06.24-4.3-1.33.07-.23.27-.93.07-.24 4.32 1.26Zm-9.78 12.32.48-.84L576 111l-.13.22-.25.46-.13.22-3.47-2Zm-3.67 5.64.57-.78 3.26 2.31-.15.2-.3.43-.15.2-3.23-2.36Zm-4.27 5.19.64-.71 2.98 2.66a30.5 30.5 0 0 1-.52.58l-.17.18-2.93-2.71Zm-4.84 4.67.72-.63 2.66 2.98-.18.17a65.33 65.33 0 0 1-.59.5l-2.61-3.02Zm-5.34 4.1.8-.55 2.3 3.27-.2.14a56.13 56.13 0 0 1-.64.44l-2.25-3.3Zm-5.76 3.48.85-.46 1.93 3.5v.01l-.22.12-.46.25-.22.12-1.88-3.54Zm-6.11 2.82.89-.36 1.53 3.7-.23.1a70.92 70.92 0 0 1-.72.28l-1.47-3.72Zm-6.39 2.12.93-.26 1.1 3.84-.24.07-.5.14-.24.07-1.05-3.86Zm-6.58 1.4.94-.16.68 3.94-.25.04-.52.09-.24.03-.61-3.95Zm-6.7.64.96-.05.22 4-.25.01-.52.03h-.25l-.16-4Zm-6.73-.11.96.06-.22 4-.25-.02a92.1 92.1 0 0 1-.53-.03l-.24-.02.28-4Zm-6.67-.87.95.17-.67 3.94-.25-.04-.52-.1c-.08 0-.16-.02-.24-.04l.73-3.93Zm-6.53-1.61.93.27-1.12 3.84-.24-.07a57 57 0 0 1-.74-.22l1.17-3.82Zm-12.34-5.36.84.47L489 136l-.22-.12-.46-.25-.22-.13 2-3.47Zm-5.64-3.67.78.57-2.31 3.26-.2-.15a65.97 65.97 0 0 1-.63-.45l2.36-3.23Zm-5.19-4.27a62.28 62.28 0 0 0 .72.64l-2.67 2.98c-.07-.05-.13-.1-.19-.17l-.39-.35-.18-.17 2.71-2.93Zm-4.67-4.84.63.72-2.98 2.66a14.76 14.76 0 0 1-.68-.77l3.03-2.61Zm-4.1-5.34.55.8-3.27 2.3a25.4 25.4 0 0 1-.44-.63l-.14-.2 3.3-2.27Zm-3.48-5.76.46.85-3.5 1.93-.13-.22-.25-.46-.11-.22 3.53-1.88Zm-2.82-6.11.36.9-3.7 1.52a22.49 22.49 0 0 1-.38-.95l3.72-1.47Zm-2.12-6.39.26.93-3.84 1.1-.07-.24a45.28 45.28 0 0 1-.2-.74l3.85-1.05Zm-1.4-6.58.16.95-3.94.67a20.76 20.76 0 0 1-.13-.77l-.03-.25 3.95-.6Zm-.64-6.7.05.96-4 .22v-.25c-.02-.17-.03-.35-.03-.52l-.01-.25 4-.16Zm.11-6.73-.06.96-4-.22.02-.25.03-.53.02-.25 4 .3Zm.87-6.67-.17.95-3.94-.67.04-.25.1-.52c0-.08.02-.16.04-.24l3.93.73Zm1.62-6.53c-.1.3-.2.62-.28.93l-3.84-1.12.07-.24.15-.5.07-.24 3.82 1.17Zm5.35-12.34-.47.84L464 49c.04-.07.07-.15.12-.22a70.98 70.98 0 0 1 .38-.68l3.47 2Zm3.67-5.64-.57.78-3.26-2.31a21.07 21.07 0 0 1 .6-.83l3.23 2.36Zm4.28-5.19-.65.71-2.98-2.66.16-.19.36-.39.17-.18 2.94 2.71Zm4.83-4.67-.72.63-2.66-2.98.19-.17.4-.35.18-.16 2.61 3.03Zm5.34-4.1-.8.55-2.3-3.27a84.8 84.8 0 0 1 .84-.58l2.26 3.3Zm5.76-3.48-.85.46-1.93-3.5a79.1 79.1 0 0 1 .68-.38l.22-.12 1.88 3.54Zm6.11-2.82-.9.36-1.52-3.7.23-.1a58.44 58.44 0 0 1 .72-.28l1.47 3.72Zm6.39-2.12-.93.26-1.1-3.84a72.03 72.03 0 0 1 .99-.28l1.04 3.86Zm6.58-1.4-.94.16-.68-3.94.25-.04a66.68 66.68 0 0 1 .77-.13l.6 3.96Zm6.7-.64-.96.05-.22-4a46.09 46.09 0 0 1 1.02-.05l.16 4Zm6.73.11-.96-.06.23-4a51.94 51.94 0 0 1 1.02.07l-.3 4Zm6.67.87-.95-.17.67-3.94a70.3 70.3 0 0 1 1.01.18l-.73 3.93Zm6.53 1.61-.93-.27 1.12-3.84a72.36 72.36 0 0 1 .99.3l-1.18 3.81Zm12.34 5.36-.84-.47L551 24h.01l.21.12.46.25.22.13-1.99 3.47Zm5.64 3.67-.78-.57 2.31-3.26.2.15.43.3.2.15-2.36 3.23Zm5.19 4.27-.71-.64 2.66-2.98a34.72 34.72 0 0 0 .58.52l.18.17-2.71 2.93Zm4.67 4.84-.63-.72 2.98-2.66a155.26 155.26 0 0 1 .68.77l-3.03 2.61Zm4.1 5.34-.55-.8 3.27-2.3.14.2a72.36 72.36 0 0 1 .45.64l-3.3 2.26Zm3.48 5.76-.45-.85 3.5-1.93a23.4 23.4 0 0 1 .49.9l-3.54 1.88Zm2.82 6.11-.36-.89 3.7-1.53a21.64 21.64 0 0 1 .38.95l-3.72 1.47Zm2.12 6.39-.26-.93 3.84-1.1a745.39 745.39 0 0 1 .21.74l.07.24-3.86 1.05Zm1.4 6.58-.16-.94 3.94-.68a20.56 20.56 0 0 1 .17 1.02l-3.96.6Zm.64 6.7-.05-.96 4-.22.01.25.03.52v.25l-4 .16Zm-.11 6.73.06-.96 4 .22-.02.25-.03.53-.02.25-4-.3Zm-.87 6.67.17-.95 3.94.67-.04.25-.1.52c0 .08-.02.16-.04.24l-3.93-.73Zm-1.61 6.53c.1-.3.18-.62.27-.93l3.84 1.12-.07.24a91.88 91.88 0 0 1-.22.74l-3.82-1.17Z" fill="#FF3E00"/><path fill-rule="evenodd" clip-rule="evenodd" d="m525.74 74.64 6.84-24.28-12.72 21.79-7.14-10.18 1.92 12.29-24.27-6.84 21.78 12.72-10.18 7.14 12.29-1.92-6.84 24.28 12.71-21.79 7.15 10.18-1.92-12.29 24.27 6.84-21.78-12.72 10.18-7.14-12.29 1.92Zm13.93-2.59-11.08 7.78 23.95 13.98-26.7-7.51 2.1 13.37-7.77-11.08-13.98 23.95 7.52-26.7-13.38 2.1 11.08-7.77-23.96-13.98 26.7 7.51-2.1-13.37 7.78 11.08 13.98-23.95-7.51 26.7 13.37-2.1Z" fill="#676778" fill-opacity=".35"/><path fill-rule="evenodd" clip-rule="evenodd" d="M476.06 113.59a5.3 5.3 0 0 1 .07-2.83 5.4 5.4 0 0 1 1.56-2.43 5.32 5.32 0 0 1 5.38-1.14c.93.32 1.75.88 2.47 1.66.71.79 1.2 1.66 1.42 2.62a5.19 5.19 0 0 1-1.61 5.24 5.35 5.35 0 0 1-5.39 1.15 6.03 6.03 0 0 1-2.46-1.67 6.03 6.03 0 0 1-1.44-2.6Zm10.52-2.03a5.54 5.54 0 0 0-1.34-2.44 5.54 5.54 0 0 0-2.3-1.55 4.93 4.93 0 0 0-4.97 1.05 4.89 4.89 0 0 0-1.51 4.87c.22.88.66 1.7 1.34 2.43a5.64 5.64 0 0 0 2.3 1.56 4.89 4.89 0 0 0 4.98-1.06 4.79 4.79 0 0 0 1.5-4.86Zm-2.12 1.86c.17-.51.2-1.02.07-1.52a3.09 3.09 0 0 0-.76-1.43c-.4-.44-.85-.73-1.35-.9-.5-.16-1-.18-1.53-.06a3.1 3.1 0 0 0-1.42.76c-.44.4-.74.85-.9 1.36-.17.5-.19 1.01-.07 1.53.12.5.37.98.77 1.41.4.44.85.74 1.34.9.5.17 1.01.19 1.53.07s1-.37 1.43-.77c.44-.4.73-.85.9-1.35Zm-2.23 2.51a3.26 3.26 0 0 1-3.25-1.09 3.58 3.58 0 0 1-.87-1.6c-.13-.58-.1-1.16.08-1.73.19-.58.52-1.1 1-1.53a3.5 3.5 0 0 1 1.61-.86c.6-.14 1.18-.11 1.74.08.57.18 1.08.52 1.52 1 .44.48.73 1.02.86 1.6.14.58.11 1.17-.08 1.74a3.49 3.49 0 0 1-1 1.52c-.48.44-1.02.73-1.61.87Zm6.44 8.38a4.86 4.86 0 0 1 .66-3.71l2.6-4.6a.65.65 0 0 1 .88-.25l1.15.65c.31.18.43.57.25.89l-2.56 4.53c-.45.8-.57 1.43-.48 1.92.1.48.43.9 1.08 1.28.65.36 1.19.42 1.64.25.47-.17.94-.6 1.4-1.4l2.55-4.54a.65.65 0 0 1 .89-.24l1.12.63c.31.18.42.58.25.89l-2.6 4.6a4.85 4.85 0 0 1-2.83 2.48c-1.15.33-2.36.1-3.6-.6a4.68 4.68 0 0 1-2.4-2.78Zm5.89 3c1.03-.3 1.9-1.06 2.6-2.3l2.59-4.6a.25.25 0 0 0-.1-.34l-1.12-.63a.25.25 0 0 0-.34.1l-2.56 4.53c-.94 1.68-2.14 2.1-3.57 1.3-1.45-.82-1.7-2.07-.76-3.74l2.56-4.54a.25.25 0 0 0-.1-.34l-1.14-.65a.25.25 0 0 0-.35.1l-2.59 4.6c-.7 1.23-.9 2.37-.62 3.4a4.27 4.27 0 0 0 2.2 2.55c1.18.66 2.28.85 3.3.56Zm-23.79-26.64-.07-.16-.76-1.65-2 .92a.65.65 0 0 1-.87-.31l-.55-1.2a.65.65 0 0 1 .32-.87l8.44-3.89c.33-.15.72 0 .87.32l1.58 3.43c.37.81.57 1.6.58 2.35.01.76-.17 1.45-.55 2.05-.38.6-.94 1.06-1.65 1.38a3.7 3.7 0 0 1-2.19.34 3.43 3.43 0 0 1-1.55-.68l-1.5 2.56a.65.65 0 0 1-1.15-.05l-.57-1.23a.65.65 0 0 1 .03-.6l1.6-2.71Zm3.22 2.31a3.06 3.06 0 0 1-1.49-.69.27.27 0 0 0-.4.07l-1.58 2.7a.25.25 0 0 1-.44-.02l-.56-1.23a.25.25 0 0 1 0-.23l1.63-2.78a.27.27 0 0 0 0-.25 7.67 7.67 0 0 1-.1-.21l-.81-1.78a.25.25 0 0 0-.33-.13l-2.14.99a.25.25 0 0 1-.33-.12l-.56-1.2a.25.25 0 0 1 .13-.33l8.44-3.9c.13-.05.28 0 .33.13l1.59 3.43c.35.77.53 1.5.54 2.19.01.69-.15 1.3-.48 1.82-.34.53-.83.94-1.49 1.24-.66.3-1.32.4-1.95.3Zm1.02-2.33c.48-.22.74-.52.83-.9.1-.39.04-.9-.27-1.58l-.72-1.57-2.83 1.3.73 1.57c.3.67.66 1.06 1.02 1.23.36.17.76.17 1.24-.05Zm-1.41.41a1.8 1.8 0 0 0 1.58-.05c.57-.26.92-.65 1.05-1.16.13-.51.03-1.13-.3-1.85l-.78-1.7a.25.25 0 0 0-.34-.13l-3.09 1.43a.25.25 0 0 0-.12.33l.78 1.7c.34.73.74 1.2 1.22 1.43Zm33.3 23.56-2.53-.57a.65.65 0 0 1-.5-.78l.24-1.02a.65.65 0 0 1 .78-.48l7.62 1.73c.35.08.57.43.49.78l-.23 1.02a.65.65 0 0 1-.78.48l-2.54-.57-1.69 7.42a.65.65 0 0 1-.77.49l-1.3-.3a.65.65 0 0 1-.48-.78l1.69-7.41Zm18.78 7.89.04 1.02a.65.65 0 0 1-.62.68l-6.84.32a.65.65 0 0 1-.68-.62l-.43-9.29a.65.65 0 0 1 .62-.68l6.64-.3c.36-.02.67.25.68.61l.05 1.03a.65.65 0 0 1-.62.68l-4.68.22.08 1.74 4.08-.19c.36-.02.67.26.68.62l.05 1a.65.65 0 0 1-.62.68l-4.08.19.1 1.9 4.87-.23c.36-.02.66.26.68.62Zm-18.36-7.94a.25.25 0 0 0-.19-.3l-2.67-.61a.25.25 0 0 1-.2-.3l.24-1.02a.25.25 0 0 1 .3-.18l7.62 1.73c.13.03.22.17.19.3l-.23 1.02a.25.25 0 0 1-.3.18l-2.68-.6a.25.25 0 0 0-.3.18l-1.73 7.57a.25.25 0 0 1-.3.19l-1.28-.3a.25.25 0 0 1-.2-.3l1.73-7.56Zm17.96 7.96a.25.25 0 0 0-.26-.24l-5.03.23a.25.25 0 0 1-.26-.23l-.1-2.2c-.01-.14.1-.26.23-.27l4.23-.2c.14 0 .25-.12.24-.25l-.05-1a.25.25 0 0 0-.26-.24l-4.23.2a.25.25 0 0 1-.26-.24l-.1-2.05c0-.13.1-.25.25-.26l4.82-.22c.14 0 .25-.13.24-.26l-.05-1.03a.25.25 0 0 0-.26-.24l-6.64.31a.25.25 0 0 0-.24.27l.43 9.29c0 .13.13.24.26.23l6.85-.32c.13 0 .24-.12.23-.26l-.04-1.02ZM536.65 128.59l-.17.06-1.71.6.73 2.08a.65.65 0 0 1-.4.83l-1.25.44a.65.65 0 0 1-.83-.4l-3.06-8.78a.65.65 0 0 1 .4-.83l3.56-1.25c.85-.3 1.65-.42 2.4-.35.76.06 1.42.3 1.98.74.56.43.96 1.03 1.22 1.77.27.76.32 1.5.12 2.21a3.44 3.44 0 0 1-.82 1.49l2.41 1.73c.43.31.33.97-.17 1.14l-1.27.45a.65.65 0 0 1-.6-.09l-2.54-1.84Zm2.6-2.98c.17-.62.14-1.28-.1-1.98-.24-.68-.6-1.2-1.1-1.59a3.23 3.23 0 0 0-1.77-.66 5.38 5.38 0 0 0-2.22.34l-3.57 1.25a.25.25 0 0 0-.16.31l3.07 8.78c.05.13.19.2.32.16l1.24-.44c.13-.04.2-.19.16-.32l-.78-2.22a.25.25 0 0 1 .15-.32l1.86-.65.21-.08a.27.27 0 0 1 .26.03l2.61 1.89c.07.05.15.06.23.03l1.27-.44c.2-.07.23-.32.07-.44l-2.55-1.83a.27.27 0 0 1-.02-.4c.42-.42.7-.9.83-1.42Zm-2.21-1.24c-.18-.5-.46-.78-.82-.92-.38-.13-.9-.12-1.6.13l-1.63.57 1.02 2.93 1.63-.57c.7-.25 1.12-.56 1.33-.9.2-.34.24-.74.07-1.24Zm.27 1.44c-.27.46-.79.81-1.54 1.08l-1.77.62a.25.25 0 0 1-.32-.16l-1.12-3.21a.25.25 0 0 1 .15-.32l1.77-.62c.75-.26 1.38-.3 1.88-.12s.85.57 1.05 1.16c.2.59.18 1.11-.1 1.58ZM521.25 26.4l-3.68 9.45c-.1.24-.32.4-.58.41l-1.46.06a.65.65 0 0 1-.62-.36l-4.43-9.13c-.2-.42.1-.92.56-.94l1.43-.05c.26-.01.5.13.6.37l3.1 6.44 2.6-6.67c.09-.25.31-.4.57-.42l1.27-.05c.47-.02.8.45.64.89Zm14.33 11.04-.28.99a.65.65 0 0 1-.8.45l-6.6-1.83a.65.65 0 0 1-.45-.8l2.5-8.96c.09-.35.45-.55.8-.45l6.4 1.78c.35.1.55.45.46.8l-.28.99a.65.65 0 0 1-.8.45l-4.51-1.26-.47 1.69 3.93 1.1c.35.09.55.45.45.8l-.26.95a.65.65 0 0 1-.8.45l-3.94-1.09-.5 1.83 4.7 1.31c.34.1.54.46.45.8ZM546.93 33l1.12.7c.3.2.4.6.2.9l-4.05 6.44 3.78 2.38c.3.2.4.6.2.9l-.55.88c-.2.3-.6.4-.9.2l-5.45-3.43c-.3-.2-.4-.6-.2-.9l4.95-7.87c.2-.3.6-.4.9-.2Zm12.06 12.4-1.73-1.93a.65.65 0 0 1 .05-.92l.78-.7a.65.65 0 0 1 .91.06l5.2 5.83c.24.27.22.68-.05.92l-.77.7a.65.65 0 0 1-.92-.06l-1.73-1.94-5.68 5.06a.65.65 0 0 1-.92-.05l-.88-.98a.65.65 0 0 1 .05-.92L559 45.4Zm5.68 21.13-.93.43a.65.65 0 0 1-.86-.31l-2.9-6.2a.65.65 0 0 1 .31-.87l8.43-3.94a.65.65 0 0 1 .86.32l2.82 6.02c.15.33 0 .72-.32.87l-.93.43a.65.65 0 0 1-.86-.31l-1.98-4.24-1.59.74 1.73 3.7c.15.32.01.7-.31.86l-.9.42a.65.65 0 0 1-.87-.31l-1.73-3.7-1.72.8 2.06 4.42c.16.33.01.72-.31.87Zm-29.65-29.5c.13.04.21.18.17.31l-.27 1a.25.25 0 0 1-.3.17l-6.6-1.84a.25.25 0 0 1-.18-.3l2.49-8.97a.25.25 0 0 1 .3-.17l6.42 1.78c.13.04.2.18.17.31l-.27.99a.25.25 0 0 1-.31.17l-4.66-1.3a.25.25 0 0 0-.3.18l-.56 1.98c-.03.13.04.27.18.3l4.08 1.14c.13.03.2.17.17.3l-.27.97a.25.25 0 0 1-.3.17l-4.08-1.13a.25.25 0 0 0-.31.17l-.6 2.12c-.03.14.05.27.18.31l4.85 1.35Zm-14.39-11.11c.18 0 .3.17.24.34l-3.67 9.46a.25.25 0 0 1-.23.15l-1.46.06c-.1 0-.2-.05-.24-.14l-4.43-9.13a.25.25 0 0 1 .22-.36l1.42-.05c.1 0 .2.05.24.14l3.24 6.75c.1.2.38.19.46-.01l2.71-7c.04-.1.13-.15.23-.16l1.27-.05Zm26.09 7.41a.25.25 0 0 0-.35.08l-4.95 7.87a.25.25 0 0 0 .07.35l5.46 3.43c.11.07.27.04.34-.08l.56-.88a.25.25 0 0 0-.08-.34l-3.91-2.47a.25.25 0 0 1-.08-.34l4.13-6.57a.25.25 0 0 0-.08-.34l-1.11-.7Zm12.64 12.27c.1-.09.12-.25.02-.35l-1.83-2.05a.25.25 0 0 1 .03-.35l.77-.7c.1-.09.26-.08.36.02l5.2 5.84c.09.1.08.26-.02.35l-.78.7c-.1.09-.26.08-.36-.03l-1.82-2.05a.25.25 0 0 0-.36-.02l-5.79 5.17c-.1.09-.26.08-.35-.02l-.88-.99a.25.25 0 0 1 .02-.35l5.8-5.17Zm5.14 20.57c.13-.06.18-.21.12-.34l-2.13-4.55a.25.25 0 0 1 .12-.34l2-.93c.12-.06.27 0 .33.12l1.8 3.84c.05.12.2.18.32.12l.9-.42c.13-.06.19-.21.13-.34l-1.8-3.83a.25.25 0 0 1 .13-.33l1.85-.87c.13-.06.28 0 .34.12l2.04 4.38c.06.13.2.18.33.12l.93-.43c.13-.06.18-.21.13-.34l-2.82-6.02a.25.25 0 0 0-.33-.13l-8.43 3.94a.25.25 0 0 0-.12.33l2.9 6.2c.06.13.2.19.33.13l.93-.43ZM500.32 39.6a5.2 5.2 0 0 1-1.82-.2.64.64 0 0 1-.43-.66l.08-1.04a.66.66 0 0 1 .83-.59 5 5 0 0 0 2.87-.14c.65-.24 1.04-.5 1.22-.74.2-.25.23-.46.15-.68a.47.47 0 0 0-.29-.3l-.01-.01a1.6 1.6 0 0 0-.7-.12c-.3 0-.72.03-1.26.09-.77.08-1.42.12-1.94.1a3.48 3.48 0 0 1-1.58-.42h-.01a2.7 2.7 0 0 1-1.16-1.5 3 3 0 0 1-.1-1.77c.16-.6.5-1.15 1.02-1.64.53-.5 1.22-.89 2.07-1.19.6-.2 1.2-.34 1.83-.4a5.44 5.44 0 0 1 1.55.07c.32.07.52.36.5.66l-.04 1.03a.66.66 0 0 1-.75.62 5.21 5.21 0 0 0-2.33.2c-.65.24-1.02.5-1.2.75a.73.73 0 0 0-.12.71c.06.16.15.26.28.31.2.08.43.12.7.11.32 0 .74-.03 1.28-.09.75-.08 1.4-.12 1.92-.1.56.02 1.09.16 1.58.43.55.3.93.81 1.16 1.48.21.58.24 1.17.08 1.76-.15.6-.5 1.15-1.01 1.63-.53.5-1.23.89-2.07 1.19-.75.26-1.51.41-2.3.45Zm5-3.37c.13-.5.1-1.02-.07-1.53a2.18 2.18 0 0 0-.99-1.26c-.43-.24-.9-.37-1.4-.38-.5-.02-1.12.02-1.86.1a17 17 0 0 1-1.3.1c-.33 0-.62-.05-.87-.15a.88.88 0 0 1-.5-.54c-.14-.38-.09-.74.16-1.09.25-.35.72-.64 1.4-.88a5.03 5.03 0 0 1 2.51-.22c.15.02.3-.1.3-.25l.05-1.03a.24.24 0 0 0-.2-.25c-.43-.08-.9-.1-1.42-.06-.6.05-1.18.18-1.74.38-.8.29-1.45.65-1.93 1.1-.46.44-.76.93-.9 1.45-.12.5-.1 1.02.09 1.53.22.6.54 1.03.98 1.29.44.24.9.36 1.4.38.5 0 1.12-.03 1.89-.11.54-.06.98-.09 1.3-.1.33 0 .61.05.86.16.25.1.43.28.52.55.13.36.06.71-.2 1.05a3 3 0 0 1-1.42.87 5.55 5.55 0 0 1-3.1.16.27.27 0 0 0-.33.23l-.09 1.04c0 .1.06.21.17.24.47.16 1.03.22 1.68.2a7.54 7.54 0 0 0 2.18-.44 5.44 5.44 0 0 0 1.92-1.1c.48-.45.78-.92.9-1.44ZM525.72 76.06l33.09 47.04-43.33-37.82-1.2 1.08a.9.9 0 1 1-1.2-1.34l1.2-1.08-33.09-47.04 43.33 37.82 1.2-1.08a.9.9 0 1 1 1.2 1.34l-1.2 1.08Zm-.23-.33 1.16-1.05a.5.5 0 0 0-.67-.74l-1.16 1.04.38.34.3.4Zm-.97-.48.38.34.3.4-2.67 2.4a3 3 0 0 1-4.4 3.96l-2.65 2.4-.38-.34-.3-.4 2.67-2.4a3 3 0 0 1 4.4-3.96l2.65-2.4Zm-.3-.26-40.8-35.61 31.16 44.3 2.38-2.15a3.4 3.4 0 0 1 4.88-4.4l2.38-2.14Zm-9.71 9.28-1.16 1.05a.5.5 0 0 0 .67.74l1.16-1.04-.38-.34-.3-.4Zm1.27.74 2.39-2.15a3.4 3.4 0 0 0 4.87-4.39l2.38-2.14 31.16 44.3L515.78 85Z" fill="#FF3E00"/><path d="M50.24 102.18c-3.92 0-7.5-.94-10.74-2.82A20.94 20.94 0 0 1 29.12 81a20.8 20.8 0 0 1 10.44-18.36 21.13 21.13 0 0 1 10.8-2.82c3.96 0 7.54.92 10.74 2.76a19.92 19.92 0 0 1 7.62 7.62 21.04 21.04 0 0 1 2.76 10.68c0 3.92-.94 7.52-2.82 10.8a21.01 21.01 0 0 1-18.42 10.5Zm0-2.22c3.52 0 6.72-.84 9.6-2.52a19.03 19.03 0 0 0 9.36-16.56c0-3.52-.82-6.7-2.46-9.54a17.8 17.8 0 0 0-6.78-6.78 18.5 18.5 0 0 0-9.6-2.52c-3.56 0-6.8.84-9.72 2.52a18.56 18.56 0 0 0-6.84 6.9A18.94 18.94 0 0 0 31.34 81c0 3.48.82 6.68 2.46 9.6a18.7 18.7 0 0 0 16.44 9.36Zm.54-6.48c-2.36 0-4.5-.52-6.42-1.56a11.83 11.83 0 0 1-4.44-4.44A12.99 12.99 0 0 1 38.3 81c0-2.4.54-4.54 1.62-6.42a11.29 11.29 0 0 1 4.44-4.44 12.87 12.87 0 0 1 6.42-1.62c2.04 0 3.88.42 5.52 1.26 1.68.8 3.02 1.92 4.02 3.36l-2.58 1.92a7.86 7.86 0 0 0-3.06-2.58 9.25 9.25 0 0 0-3.96-.84c-2.6 0-4.76.86-6.48 2.58-1.68 1.72-2.52 3.98-2.52 6.78 0 2.8.84 5.06 2.52 6.78a8.79 8.79 0 0 0 6.48 2.58c1.44 0 2.76-.28 3.96-.84a7.86 7.86 0 0 0 3.06-2.58l2.58 1.86c-1 1.48-2.34 2.64-4.02 3.48-1.64.8-3.48 1.2-5.52 1.2ZM97.06 60h17.1c4.44 0 8.36.9 11.76 2.7a19.22 19.22 0 0 1 7.92 7.44A20.83 20.83 0 0 1 136.66 81c0 4.08-.94 7.72-2.82 10.92a19.75 19.75 0 0 1-7.92 7.44 25.22 25.22 0 0 1-11.76 2.64h-17.1V60Zm16.86 38.16c3.68 0 6.9-.72 9.66-2.16 2.76-1.48 4.9-3.5 6.42-6.06a17.38 17.38 0 0 0 2.28-8.94c0-3.36-.76-6.32-2.28-8.88a15.65 15.65 0 0 0-6.42-6.06 20.14 20.14 0 0 0-9.66-2.22H101.5v34.32h12.42ZM156.77 70.2c4.12 0 7.28 1.04 9.48 3.12 2.2 2.04 3.3 5.08 3.3 9.12V102h-4.08v-4.92a9.74 9.74 0 0 1-4.26 3.84 14.61 14.61 0 0 1-6.6 1.38c-3.52 0-6.32-.84-8.4-2.52a8.14 8.14 0 0 1-3.12-6.66 8.1 8.1 0 0 1 2.88-6.48c1.96-1.64 5.06-2.46 9.3-2.46h10.02v-1.92c0-2.72-.76-4.78-2.28-6.18-1.52-1.44-3.74-2.16-6.66-2.16-2 0-3.92.34-5.76 1.02a14.1 14.1 0 0 0-4.74 2.7l-1.92-3.18c1.6-1.36 3.52-2.4 5.76-3.12 2.24-.76 4.6-1.14 7.08-1.14Zm-1.5 28.74c2.4 0 4.46-.54 6.18-1.62 1.72-1.12 3-2.72 3.84-4.8v-5.16h-9.9c-5.4 0-8.1 1.88-8.1 5.64 0 1.84.7 3.3 2.1 4.38 1.4 1.04 3.36 1.56 5.88 1.56ZM197.2 70.2c3.96 0 7.1 1.16 9.42 3.48 2.36 2.28 3.54 5.62 3.54 10.02V102h-4.26V84.12c0-3.28-.82-5.78-2.46-7.5-1.64-1.72-3.98-2.58-7.02-2.58-3.4 0-6.1 1.02-8.1 3.06-1.96 2-2.94 4.78-2.94 8.34V102h-4.26V70.44h4.08v5.82a11.7 11.7 0 0 1 4.8-4.44 15.4 15.4 0 0 1 7.2-1.62ZM221.72 70.44H226V102h-4.27V70.44Zm2.16-6.9c-.88 0-1.62-.3-2.22-.9a2.95 2.95 0 0 1 0-4.26c.6-.6 1.34-.9 2.22-.9.88 0 1.63.3 2.22.9.6.56.9 1.24.9 2.04 0 .88-.3 1.62-.9 2.22-.6.6-1.34.9-2.22.9ZM265.32 87.54h-26.4c.24 3.28 1.5 5.94 3.78 7.98 2.28 2 5.16 3 8.64 3 1.96 0 3.76-.34 5.4-1.02a12.12 12.12 0 0 0 4.26-3.12l2.4 2.76a13.47 13.47 0 0 1-5.28 3.84 17.54 17.54 0 0 1-6.9 1.32 17.9 17.9 0 0 1-8.64-2.04 15.2 15.2 0 0 1-5.82-5.76c-1.4-2.44-2.1-5.2-2.1-8.28 0-3.08.66-5.84 1.98-8.28a14.83 14.83 0 0 1 5.52-5.7c2.36-1.36 5-2.04 7.92-2.04s5.54.68 7.86 2.04a14.4 14.4 0 0 1 5.46 5.7 16.9 16.9 0 0 1 1.98 8.28l-.06 1.32Zm-15.24-13.68c-3.04 0-5.6.98-7.68 2.94a11.37 11.37 0 0 0-3.48 7.56h22.38a11.25 11.25 0 0 0-3.54-7.56 10.64 10.64 0 0 0-7.68-2.94ZM274.05 57.48h4.26V102h-4.26V57.48ZM318.35 102.36c-3.12 0-6.12-.5-9-1.5-2.84-1-5.04-2.32-6.6-3.96l1.74-3.42a16.98 16.98 0 0 0 6.06 3.72c2.52.92 5.12 1.38 7.8 1.38 3.76 0 6.58-.68 8.46-2.04a6.45 6.45 0 0 0 2.82-5.4c0-1.68-.52-3.02-1.56-4.02-1-1-2.24-1.76-3.72-2.28a54.85 54.85 0 0 0-6.18-1.8 70 70 0 0 1-7.56-2.28c-1.88-.76-3.5-1.9-4.86-3.42-1.32-1.52-1.98-3.58-1.98-6.18 0-2.12.56-4.04 1.68-5.76a11.43 11.43 0 0 1 5.16-4.2c2.32-1.04 5.2-1.56 8.64-1.56 2.4 0 4.74.34 7.02 1.02 2.32.64 4.32 1.54 6 2.7l-1.5 3.54a19.99 19.99 0 0 0-5.64-2.58c-2-.6-3.96-.9-5.88-.9-3.68 0-6.46.72-8.34 2.16a6.55 6.55 0 0 0-2.76 5.46c0 1.68.5 3.04 1.5 4.08 1.04 1 2.32 1.78 3.84 2.34 1.56.52 3.64 1.1 6.24 1.74 3.08.76 5.56 1.52 7.44 2.28 1.92.72 3.54 1.84 4.86 3.36 1.32 1.48 1.98 3.5 1.98 6.06 0 2.12-.58 4.06-1.74 5.82a11.56 11.56 0 0 1-5.22 4.14c-2.36 1-5.26 1.5-8.7 1.5ZM355.86 102.3c-3.12 0-5.92-.68-8.4-2.04a14.88 14.88 0 0 1-5.76-5.7 16.67 16.67 0 0 1-2.1-8.34c0-3.08.7-5.84 2.1-8.28a14.88 14.88 0 0 1 5.76-5.7 17.18 17.18 0 0 1 8.4-2.04c2.72 0 5.14.54 7.26 1.62a11.87 11.87 0 0 1 5.1 4.62l-3.18 2.16a9.72 9.72 0 0 0-3.96-3.48 11.5 11.5 0 0 0-5.22-1.2c-2.28 0-4.34.52-6.18 1.56a10.8 10.8 0 0 0-4.26 4.32c-1 1.88-1.5 4.02-1.5 6.42 0 2.44.5 4.6 1.5 6.48a11.33 11.33 0 0 0 4.26 4.32c1.84 1 3.9 1.5 6.18 1.5a12 12 0 0 0 5.22-1.14 9.72 9.72 0 0 0 3.96-3.48l3.18 2.16a12.26 12.26 0 0 1-5.1 4.68 16.52 16.52 0 0 1-7.26 1.56ZM392.2 70.2c3.96 0 7.1 1.16 9.42 3.48 2.36 2.28 3.54 5.62 3.54 10.02V102h-4.26V84.12c0-3.28-.82-5.78-2.46-7.5-1.64-1.72-3.98-2.58-7.02-2.58-3.4 0-6.1 1.02-8.1 3.06-1.96 2-2.94 4.78-2.94 8.34V102h-4.26V57.48h4.26v18.48a11.55 11.55 0 0 1 4.8-4.26c2.04-1 4.38-1.5 7.02-1.5ZM427.76 70.2c4.13 0 7.29 1.04 9.49 3.12 2.2 2.04 3.3 5.08 3.3 9.12V102h-4.09v-4.92a9.74 9.74 0 0 1-4.25 3.84 14.61 14.61 0 0 1-6.6 1.38c-3.53 0-6.32-.84-8.4-2.52a8.14 8.14 0 0 1-3.13-6.66 8.1 8.1 0 0 1 2.88-6.48c1.97-1.64 5.06-2.46 9.3-2.46h10.03v-1.92c0-2.72-.77-4.78-2.29-6.18-1.51-1.44-3.74-2.16-6.65-2.16-2 0-3.93.34-5.77 1.02a14.1 14.1 0 0 0-4.73 2.7l-1.93-3.18c1.6-1.36 3.52-2.4 5.76-3.12 2.25-.76 4.6-1.14 7.08-1.14Zm-1.5 28.74c2.4 0 4.47-.54 6.19-1.62 1.72-1.12 3-2.72 3.84-4.8v-5.16h-9.9c-5.4 0-8.1 1.88-8.1 5.64 0 1.84.7 3.3 2.1 4.38 1.4 1.04 3.36 1.56 5.88 1.56ZM456.2 76.62c1-2.12 2.48-3.72 4.44-4.8 2-1.08 4.46-1.62 7.38-1.62v4.14l-1.02-.06c-3.32 0-5.92 1.02-7.8 3.06s-2.82 4.9-2.82 8.58V102h-4.26V70.44h4.08v6.18ZM487.43 86.16 479.99 93v9h-4.26V57.48h4.26v30.18l18.84-17.22h5.28l-13.5 12.9L505.37 102h-5.22l-12.72-15.84ZM523.38 102.3a16.6 16.6 0 0 1-8.23-2.04 15.31 15.31 0 0 1-5.75-5.76c-1.4-2.44-2.1-5.2-2.1-8.28 0-3.08.7-5.84 2.1-8.28a14.88 14.88 0 0 1 5.75-5.7 16.6 16.6 0 0 1 8.23-2.04c3.03 0 5.77.68 8.22 2.04a14.47 14.47 0 0 1 5.7 5.7c1.4 2.44 2.1 5.2 2.1 8.28 0 3.08-.7 5.84-2.1 8.28a14.88 14.88 0 0 1-5.7 5.76 16.6 16.6 0 0 1-8.23 2.04Zm0-3.78c2.24 0 4.24-.5 6-1.5a10.8 10.8 0 0 0 4.2-4.38c1-1.88 1.5-4.02 1.5-6.42 0-2.4-.5-4.54-1.5-6.42s-2.4-3.32-4.2-4.32a11.57 11.57 0 0 0-6-1.56c-2.25 0-4.26.52-6.06 1.56-1.77 1-3.17 2.44-4.2 4.32-1 1.88-1.5 4.02-1.5 6.42 0 2.4.5 4.54 1.5 6.42a11.35 11.35 0 0 0 4.2 4.38c1.8 1 3.81 1.5 6.05 1.5ZM573.73 70.44 559.7 102h-4.38l-13.98-31.56h4.44l11.82 26.88 11.94-26.88h4.2Z" fill="none"/><path d="M11.74 67.3c-2 0-3.94-.3-5.81-.9a12.11 12.11 0 0 1-4.37-2.44L2.96 61c1.02.9 2.3 1.66 3.88 2.24 1.6.56 3.23.83 4.9.83 2.2 0 3.85-.36 4.94-1.1a3.5 3.5 0 0 0 1.64-3c0-.91-.3-1.65-.92-2.2a5.65 5.65 0 0 0-2.2-1.33c-.86-.3-2.09-.65-3.69-1.03-2-.48-3.62-.96-4.86-1.44a8.29 8.29 0 0 1-3.15-2.2 6.07 6.07 0 0 1-1.3-4.07c0-1.42.37-2.7 1.1-3.84a7.83 7.83 0 0 1 3.43-2.74 13.8 13.8 0 0 1 5.66-1.02c1.57 0 3.11.2 4.63.6 1.52.4 2.83 1 3.92 1.75l-1.26 3.04a13.3 13.3 0 0 0-3.57-1.6c-1.26-.37-2.5-.56-3.72-.56-2.16 0-3.78.39-4.87 1.17a3.62 3.62 0 0 0-1.6 3.04c0 .92.31 1.66.92 2.25.6.55 1.36 1 2.24 1.33.91.3 2.14.63 3.69.98 2 .49 3.6.97 4.82 1.45a7.97 7.97 0 0 1 3.12 2.2 5.75 5.75 0 0 1 1.33 4c0 1.39-.38 2.66-1.14 3.83a7.8 7.8 0 0 1-3.46 2.74c-1.54.65-3.44.98-5.7.98ZM44.51 46.86 35.7 67h-3.72l-8.82-20.14h3.8l6.92 16.15 7.07-16.15h3.57ZM65.56 57.04c0 .28-.02.65-.08 1.1H49.14c.23 1.78 1 3.21 2.32 4.3 1.35 1.06 3 1.6 4.98 1.6 2.4 0 4.35-.81 5.81-2.44l2.02 2.36a8.8 8.8 0 0 1-3.42 2.43 11.7 11.7 0 0 1-4.52.84c-2.13 0-4.02-.43-5.67-1.3a9.6 9.6 0 0 1-3.83-3.68 10.63 10.63 0 0 1-1.33-5.32c0-1.95.43-3.71 1.29-5.28a9.43 9.43 0 0 1 3.6-3.65 10.27 10.27 0 0 1 5.21-1.33c1.93 0 3.64.44 5.13 1.33a8.92 8.92 0 0 1 3.54 3.65c.86 1.57 1.3 3.37 1.3 5.4Zm-9.96-7.3c-1.74 0-3.21.54-4.4 1.6a6.47 6.47 0 0 0-2.06 4.18h12.92a6.36 6.36 0 0 0-6.46-5.77ZM70.63 38.8h3.64V67h-3.64V38.8ZM93.05 65.82c-.54.46-1.2.81-1.98 1.07-.79.22-1.6.34-2.43.34-2.03 0-3.6-.55-4.71-1.64-1.12-1.09-1.68-2.64-1.68-4.67V49.86h-3.42v-3h3.42v-4.4h3.65v4.4h5.78v3H85.9v10.9c0 1.1.27 1.93.8 2.52a3.1 3.1 0 0 0 2.36.87 4.4 4.4 0 0 0 2.85-.95l1.14 2.62ZM114.99 57.04c0 .28-.02.65-.08 1.1H98.57c.23 1.78 1 3.21 2.32 4.3 1.34 1.06 3 1.6 4.98 1.6 2.4 0 4.34-.81 5.81-2.44l2.02 2.36a8.8 8.8 0 0 1-3.42 2.43 11.7 11.7 0 0 1-4.52.84c-2.13 0-4.02-.43-5.67-1.3a9.6 9.6 0 0 1-3.83-3.68 10.63 10.63 0 0 1-1.33-5.32c0-1.95.43-3.71 1.29-5.28a9.43 9.43 0 0 1 3.6-3.65 10.27 10.27 0 0 1 5.21-1.33c1.93 0 3.64.44 5.13 1.33a8.92 8.92 0 0 1 3.54 3.65c.86 1.57 1.29 3.37 1.29 5.4Zm-9.96-7.3c-1.74 0-3.21.54-4.4 1.6a6.47 6.47 0 0 0-2.06 4.18h12.92a6.36 6.36 0 0 0-6.46-5.77Z" fill="#FF3E00"/><path d="m148.77 67-5.73-8.17c-.71.05-1.27.08-1.68.08h-6.57V67h-3.8V40.4h10.37c3.45 0 6.16.82 8.14 2.47 1.97 1.65 2.96 3.91 2.96 6.8 0 2.05-.5 3.8-1.52 5.25a8.58 8.58 0 0 1-4.33 3.15l6.3 8.93h-4.14Zm-7.52-11.32c2.4 0 4.24-.52 5.51-1.56 1.27-1.04 1.9-2.52 1.9-4.45 0-1.92-.63-3.4-1.9-4.4-1.27-1.04-3.1-1.56-5.51-1.56h-6.46v11.97h6.46ZM166.7 67.23c-2 0-3.8-.45-5.4-1.33a9.82 9.82 0 0 1-3.76-3.65 10.63 10.63 0 0 1-1.33-5.32c0-1.98.44-3.74 1.33-5.28A9.47 9.47 0 0 1 161.3 48c1.6-.89 3.4-1.33 5.4-1.33 2 0 3.78.44 5.35 1.33a9.22 9.22 0 0 1 3.73 3.65 10.2 10.2 0 0 1 1.36 5.28c0 1.98-.45 3.75-1.36 5.32a9.55 9.55 0 0 1-3.73 3.65 10.7 10.7 0 0 1-5.36 1.33Zm0-3.2a6.44 6.44 0 0 0 5.89-3.38c.58-1.09.87-2.33.87-3.72 0-1.4-.3-2.62-.88-3.69a6.12 6.12 0 0 0-2.43-2.5 6.81 6.81 0 0 0-3.46-.88 6.43 6.43 0 0 0-5.93 3.38 7.55 7.55 0 0 0-.87 3.69c0 1.4.3 2.63.88 3.72a6.8 6.8 0 0 0 2.43 2.51c1.04.58 2.2.88 3.5.88ZM200.96 46.86V67h-3.46v-3.04a7.45 7.45 0 0 1-2.92 2.43c-1.2.56-2.5.84-3.92.84-2.68 0-4.8-.74-6.34-2.2-1.55-1.5-2.32-3.7-2.32-6.58V46.86h3.65v11.17c0 1.95.47 3.43 1.4 4.45.94.99 2.28 1.48 4.03 1.48 1.93 0 3.45-.58 4.56-1.75 1.12-1.16 1.67-2.81 1.67-4.94V46.86h3.65ZM219.23 65.82c-.53.46-1.2.81-1.98 1.07-.78.22-1.6.34-2.43.34-2.03 0-3.6-.55-4.71-1.64-1.12-1.09-1.67-2.64-1.67-4.67V49.86h-3.42v-3h3.42v-4.4h3.65v4.4h5.77v3h-5.77v10.9c0 1.1.26 1.93.8 2.52a3.1 3.1 0 0 0 2.35.87 4.4 4.4 0 0 0 2.85-.95l1.14 2.62ZM241.17 57.04c0 .28-.02.65-.07 1.1h-16.34c.23 1.78 1 3.21 2.32 4.3 1.34 1.06 3 1.6 4.97 1.6 2.41 0 4.35-.81 5.82-2.44l2.01 2.36a8.8 8.8 0 0 1-3.42 2.43 11.7 11.7 0 0 1-4.52.84c-2.13 0-4.01-.43-5.66-1.3a9.6 9.6 0 0 1-3.84-3.68 10.63 10.63 0 0 1-1.33-5.32c0-1.95.43-3.71 1.3-5.28A9.43 9.43 0 0 1 226 48a10.27 10.27 0 0 1 5.2-1.33c1.93 0 3.64.44 5.14 1.33a8.92 8.92 0 0 1 3.53 3.65c.86 1.57 1.3 3.37 1.3 5.4Zm-9.95-7.3c-1.75 0-3.22.54-4.41 1.6a6.48 6.48 0 0 0-2.05 4.18h12.92a6.36 6.36 0 0 0-6.46-5.77ZM249.74 50.24a6.23 6.23 0 0 1 2.8-2.66 10.2 10.2 0 0 1 4.53-.91v3.53c-.2-.02-.48-.03-.84-.03-1.97 0-3.53.6-4.67 1.78-1.12 1.17-1.67 2.84-1.67 5.02V67h-3.65V46.86h3.5v3.38Z" fill="#676778"/><path d="M2.26 80.37v3.3H6.6v.77H2.26V88h-.9v-8.4h5.77v.77H2.26ZM10.73 81.64c.83 0 1.46.2 1.9.62.44.41.66 1.02.66 1.83V88h-.82v-.98c-.19.32-.47.58-.85.76-.37.19-.8.28-1.32.28a2.6 2.6 0 0 1-1.68-.5A1.63 1.63 0 0 1 8 86.22c0-.53.19-.96.57-1.3.4-.32 1.01-.48 1.86-.48h2v-.39c0-.54-.15-.95-.45-1.23-.3-.3-.75-.44-1.33-.44a3.3 3.3 0 0 0-2.1.75l-.39-.64a4.38 4.38 0 0 1 2.57-.85Zm-.3 5.75c.48 0 .9-.11 1.24-.33a2 2 0 0 0 .77-.96v-1.03h-1.98c-1.08 0-1.62.38-1.62 1.13 0 .37.14.66.42.88.28.2.67.3 1.17.3ZM17.3 88.06c-.52 0-1.01-.07-1.48-.22a3.24 3.24 0 0 1-1.1-.56l.39-.67c.26.2.6.38 1 .51s.81.2 1.24.2c.58 0 1-.1 1.28-.27a.87.87 0 0 0 .42-.77.67.67 0 0 0-.23-.54 1.41 1.41 0 0 0-.58-.3 7.26 7.26 0 0 0-.92-.2c-.51-.1-.93-.2-1.24-.29a1.9 1.9 0 0 1-.8-.51 1.44 1.44 0 0 1-.33-1c0-.53.22-.96.66-1.3.44-.33 1.06-.5 1.84-.5a4.6 4.6 0 0 1 2.23.59l-.37.68a3.19 3.19 0 0 0-1.86-.54c-.54 0-.96.1-1.24.29-.27.2-.4.44-.4.76 0 .24.07.43.22.57.16.15.36.25.6.33.22.06.54.13.95.2.5.1.91.2 1.21.29.3.1.57.26.78.49.22.23.33.55.33.96 0 .55-.23 1-.7 1.32-.45.32-1.09.48-1.9.48ZM24.8 87.62c-.16.14-.36.25-.6.33-.23.07-.48.11-.73.11-.6 0-1.05-.16-1.37-.48a1.83 1.83 0 0 1-.48-1.36v-3.81h-1.13v-.72h1.13V80.3h.85v1.38h1.92v.72h-1.92v3.77c0 .37.1.66.28.86.19.2.46.29.81.29a1.51 1.51 0 0 0 .94-.33l.3.62ZM26.56 86.75a.6.6 0 0 1 .46.2c.12.11.18.27.18.45a2.56 2.56 0 0 1-.17.7l-.5 1.65h-.58l.4-1.74a.62.62 0 0 1-.3-.21.66.66 0 0 1-.12-.4c0-.18.06-.34.18-.46a.6.6 0 0 1 .45-.19ZM33.84 88.06c-.51 0-1-.07-1.47-.22a3.24 3.24 0 0 1-1.1-.56l.39-.67c.26.2.6.38 1 .51s.8.2 1.24.2c.58 0 1-.1 1.27-.27a.87.87 0 0 0 .42-.77.67.67 0 0 0-.22-.54 1.41 1.41 0 0 0-.58-.3 7.26 7.26 0 0 0-.92-.2c-.52-.1-.93-.2-1.24-.29a1.9 1.9 0 0 1-.8-.51 1.44 1.44 0 0 1-.33-1c0-.53.22-.96.66-1.3.44-.33 1.05-.5 1.84-.5a4.6 4.6 0 0 1 2.23.59l-.37.68a3.19 3.19 0 0 0-1.86-.54c-.55 0-.96.1-1.24.29-.27.2-.4.44-.4.76 0 .24.07.43.22.57.16.15.36.25.59.33.23.06.55.13.96.2.5.1.9.2 1.21.29.3.1.57.26.78.49.22.23.33.55.33.96 0 .55-.24 1-.7 1.32-.46.32-1.1.48-1.9.48ZM38.02 81.69h.85V88h-.85v-6.31Zm.43-1.38a.6.6 0 0 1-.44-.18.59.59 0 0 1 0-.85.6.6 0 0 1 .44-.18.6.6 0 0 1 .45.18c.12.1.18.24.18.4a.6.6 0 0 1-.18.45.6.6 0 0 1-.45.18ZM49.11 81.64c.8 0 1.42.23 1.86.68.46.46.69 1.13.69 2.02V88h-.85v-3.58c0-.65-.16-1.15-.48-1.5-.32-.34-.76-.51-1.34-.51a2 2 0 0 0-1.54.61c-.38.4-.57.96-.57 1.67V88h-.85v-3.58c0-.65-.16-1.15-.48-1.5-.31-.34-.76-.51-1.34-.51-.65 0-1.17.2-1.55.61-.38.4-.57.96-.57 1.67V88h-.85v-6.31h.82v1.15c.22-.38.53-.68.93-.89.4-.2.86-.31 1.38-.31.53 0 .99.11 1.37.34.4.22.69.55.88 1 .23-.42.56-.75 1-.98.43-.24.93-.36 1.5-.36ZM57.22 81.64c.6 0 1.13.14 1.6.4.49.27.87.65 1.14 1.14.27.48.4 1.04.4 1.66 0 .64-.13 1.2-.4 1.68-.27.5-.65.87-1.13 1.14-.47.27-1 .4-1.6.4a2.69 2.69 0 0 1-2.4-1.25v3.52h-.86v-8.64h.82v1.25c.25-.42.59-.74 1-.96a3 3 0 0 1 1.43-.34Zm-.06 5.66c.44 0 .84-.1 1.2-.3.36-.2.64-.5.84-.87.2-.38.31-.8.31-1.29 0-.48-.1-.9-.3-1.27-.2-.37-.49-.67-.85-.87-.36-.21-.76-.32-1.2-.32a2.27 2.27 0 0 0-2.05 1.19c-.2.37-.3.8-.3 1.27 0 .48.1.91.3 1.29.2.37.49.67.84.87.36.2.76.3 1.21.3ZM62.1 79.1h.85V88h-.85v-8.9ZM70.82 85.1h-5.28c.05.66.3 1.2.76 1.6.45.4 1.03.6 1.72.6a2.42 2.42 0 0 0 1.93-.83l.49.56c-.28.33-.64.59-1.06.77a3.5 3.5 0 0 1-1.38.26c-.65 0-1.22-.14-1.73-.4-.5-.29-.88-.67-1.16-1.16a3.27 3.27 0 0 1-.42-1.66c0-.61.13-1.16.4-1.65a2.97 2.97 0 0 1 2.68-1.55 2.88 2.88 0 0 1 2.66 1.55c.27.48.4 1.03.4 1.65v.27Zm-3.05-2.73c-.6 0-1.12.2-1.53.59-.41.38-.64.89-.7 1.51h4.48a2.25 2.25 0 0 0-.71-1.51c-.4-.4-.92-.59-1.54-.59ZM81.9 88.13l-1.16-1.2a3.67 3.67 0 0 1-2.81 1.14c-.55 0-1.03-.09-1.47-.26a2.41 2.41 0 0 1-1-.76c-.23-.33-.35-.7-.35-1.11 0-.5.16-.96.48-1.36.32-.4.86-.82 1.63-1.26-.4-.42-.68-.77-.83-1.06-.15-.3-.23-.6-.23-.93 0-.54.2-.97.58-1.3.38-.33.9-.49 1.55-.49.6 0 1.07.15 1.43.44.35.3.52.7.52 1.23 0 .41-.14.79-.42 1.13-.28.32-.76.69-1.45 1.09l2.3 2.37c.26-.45.45-1 .57-1.62l.7.22a5.6 5.6 0 0 1-.75 1.93l1.2 1.24-.49.56Zm-3.61-7.95c-.42 0-.75.1-.99.3-.23.22-.34.5-.34.84 0 .24.06.48.19.7.13.23.38.53.75.92a5.8 5.8 0 0 0 1.26-.9c.24-.25.35-.52.35-.82 0-.32-.1-.57-.32-.76a1.3 1.3 0 0 0-.9-.28Zm-.31 7.18a2.9 2.9 0 0 0 2.25-.94l-2.53-2.6c-.66.37-1.12.7-1.38 1.01-.25.3-.37.65-.37 1.02 0 .46.18.83.55 1.1.38.28.87.41 1.48.41ZM92.37 85.1H87.1c.05.66.3 1.2.76 1.6.45.4 1.03.6 1.73.6a2.42 2.42 0 0 0 1.93-.83l.48.56c-.28.33-.63.59-1.06.77a3.5 3.5 0 0 1-1.38.26c-.65 0-1.22-.14-1.73-.4-.5-.29-.88-.67-1.16-1.16a3.27 3.27 0 0 1-.42-1.66c0-.61.13-1.16.4-1.65a2.97 2.97 0 0 1 2.68-1.55 2.88 2.88 0 0 1 2.66 1.55c.27.48.4 1.03.4 1.65v.27Zm-3.05-2.73c-.6 0-1.12.2-1.53.59-.41.38-.64.89-.7 1.51h4.48a2.25 2.25 0 0 0-.71-1.51c-.4-.4-.92-.59-1.54-.59ZM96.15 81.64c.82 0 1.46.2 1.9.62.44.41.66 1.02.66 1.83V88h-.82v-.98c-.2.32-.48.58-.85.76-.37.19-.81.28-1.32.28a2.6 2.6 0 0 1-1.68-.5 1.63 1.63 0 0 1-.63-1.34c0-.53.2-.96.58-1.3.4-.32 1.01-.48 1.86-.48h2v-.39c0-.54-.15-.95-.45-1.23-.3-.3-.75-.44-1.33-.44a3.3 3.3 0 0 0-2.1.75l-.39-.64c.32-.27.7-.48 1.15-.62.45-.15.92-.23 1.42-.23Zm-.3 5.75c.48 0 .9-.11 1.24-.33a2 2 0 0 0 .76-.96v-1.03h-1.98c-1.08 0-1.62.38-1.62 1.13 0 .37.14.66.42.88.28.2.68.3 1.18.3ZM102.71 88.06c-.51 0-1-.07-1.47-.22a3.24 3.24 0 0 1-1.1-.56l.39-.67c.26.2.6.38 1 .51s.81.2 1.24.2c.58 0 1-.1 1.27-.27a.87.87 0 0 0 .42-.77.67.67 0 0 0-.22-.54 1.41 1.41 0 0 0-.58-.3 7.26 7.26 0 0 0-.92-.2c-.52-.1-.93-.2-1.24-.29a1.9 1.9 0 0 1-.8-.51 1.44 1.44 0 0 1-.33-1c0-.53.22-.96.66-1.3.44-.33 1.05-.5 1.84-.5a4.6 4.6 0 0 1 2.23.59l-.37.68a3.19 3.19 0 0 0-1.86-.54c-.55 0-.96.1-1.24.29-.27.2-.4.44-.4.76 0 .24.07.43.22.57.16.15.36.25.59.33.23.06.55.13.96.2.5.1.9.2 1.21.29.3.1.57.26.78.49.22.23.33.55.33.96 0 .55-.24 1-.7 1.32-.46.32-1.1.48-1.9.48ZM112.08 81.69l-3.16 7.07c-.25.59-.55 1-.89 1.26-.33.24-.74.37-1.2.37-.31 0-.6-.05-.86-.15-.26-.1-.5-.24-.68-.43l.4-.63c.31.32.7.48 1.14.48.3 0 .54-.08.74-.24.2-.16.4-.44.57-.82l.28-.61-2.82-6.3h.89l2.37 5.36 2.38-5.36h.84ZM119.74 87.62c-.16.14-.36.25-.6.33-.23.07-.47.11-.73.11-.6 0-1.05-.16-1.37-.48a1.83 1.83 0 0 1-.48-1.36v-3.81h-1.13v-.72h1.13V80.3h.86v1.38h1.91v.72h-1.91v3.77c0 .37.09.66.27.86.2.2.47.29.82.29a1.51 1.51 0 0 0 .93-.33l.3.62ZM123.65 88.06a3.06 3.06 0 0 1-2.8-1.56 3.27 3.27 0 0 1-.42-1.66c0-.61.14-1.16.42-1.65.29-.49.67-.87 1.16-1.14.48-.27 1.03-.41 1.64-.41.6 0 1.16.14 1.64.4.5.28.87.66 1.14 1.15.28.49.42 1.04.42 1.65 0 .62-.13 1.17-.41 1.66-.28.49-.66.87-1.14 1.15-.5.27-1.04.41-1.65.41Zm0-.76c.45 0 .85-.1 1.2-.3.36-.2.64-.5.84-.87.2-.38.3-.8.3-1.29 0-.48-.1-.9-.3-1.28a2.31 2.31 0 0 0-2.04-1.18c-.45 0-.85.1-1.21.32-.35.2-.63.48-.84.86-.2.38-.3.8-.3 1.28s.1.91.3 1.29c.2.37.49.67.84.87.36.2.76.3 1.21.3ZM137.42 81.69V88h-.81v-1.15c-.23.38-.54.68-.93.9-.39.2-.84.31-1.34.31-.83 0-1.48-.23-1.96-.68-.47-.47-.7-1.14-.7-2.03v-3.66h.85v3.57c0 .67.16 1.17.49 1.52.33.34.8.51 1.4.51.67 0 1.2-.2 1.58-.6.38-.4.57-.97.57-1.69v-3.31h.85ZM141.5 88.06c-.51 0-1-.07-1.47-.22a3.24 3.24 0 0 1-1.1-.56l.39-.67c.26.2.6.38 1 .51s.8.2 1.24.2c.58 0 1-.1 1.27-.27a.87.87 0 0 0 .42-.77.67.67 0 0 0-.22-.54 1.41 1.41 0 0 0-.58-.3 7.26 7.26 0 0 0-.92-.2c-.52-.1-.93-.2-1.24-.29a1.9 1.9 0 0 1-.8-.51 1.44 1.44 0 0 1-.33-1c0-.53.22-.96.66-1.3.44-.33 1.05-.5 1.84-.5a4.6 4.6 0 0 1 2.23.59l-.37.68a3.19 3.19 0 0 0-1.86-.54c-.55 0-.96.1-1.24.29-.27.2-.4.44-.4.76 0 .24.07.43.22.57.16.15.36.25.59.33.23.06.55.13.96.2.5.1.9.2 1.21.29.3.1.56.26.78.49.22.23.32.55.32.96 0 .55-.23 1-.7 1.32-.45.32-1.08.48-1.9.48ZM151.18 85.1h-5.28c.04.66.3 1.2.75 1.6.46.4 1.03.6 1.73.6a2.42 2.42 0 0 0 1.93-.83l.48.56c-.28.33-.63.59-1.05.77a3.5 3.5 0 0 1-1.38.26c-.65 0-1.23-.14-1.73-.4-.5-.29-.89-.67-1.17-1.16a3.27 3.27 0 0 1-.42-1.66c0-.61.14-1.16.4-1.65a2.97 2.97 0 0 1 2.69-1.55 2.88 2.88 0 0 1 2.66 1.55c.27.48.4 1.03.4 1.65l-.01.27Zm-3.05-2.73c-.61 0-1.12.2-1.54.59-.4.38-.64.89-.7 1.51h4.48a2.25 2.25 0 0 0-.7-1.51c-.41-.4-.93-.59-1.54-.59ZM161.98 88l-1.92-2.7c-.22.02-.44.04-.67.04h-2.26V88h-.89v-8.4h3.15a3.8 3.8 0 0 1 2.52.77c.6.51.9 1.21.9 2.11 0 .66-.16 1.21-.5 1.67-.32.45-.8.77-1.41.97l2.05 2.88h-.97Zm-2.62-3.42c.83 0 1.47-.18 1.91-.55.44-.37.66-.89.66-1.55 0-.68-.22-1.2-.66-1.56-.44-.37-1.08-.55-1.9-.55h-2.24v4.21h2.23ZM167.31 88.06a3.06 3.06 0 0 1-2.8-1.56 3.27 3.27 0 0 1-.41-1.66c0-.61.14-1.16.42-1.65.28-.49.66-.87 1.15-1.14.49-.27 1.04-.41 1.65-.41.6 0 1.15.14 1.64.4.49.28.87.66 1.14 1.15.28.49.42 1.04.42 1.65 0 .62-.14 1.17-.42 1.66-.27.49-.65.87-1.14 1.15-.49.27-1.04.41-1.65.41Zm0-.76c.45 0 .85-.1 1.2-.3.37-.2.65-.5.84-.87.2-.38.3-.8.3-1.29 0-.48-.1-.9-.3-1.28a2.31 2.31 0 0 0-2.04-1.18c-.44 0-.85.1-1.2.32-.36.2-.64.48-.85.86-.2.38-.3.8-.3 1.28s.1.91.3 1.29c.21.37.5.67.84.87.36.2.77.3 1.22.3ZM177.95 81.69V88h-.82v-1.15c-.22.38-.53.68-.92.9-.4.2-.84.31-1.35.31-.82 0-1.47-.23-1.95-.68-.48-.47-.71-1.14-.71-2.03v-3.66h.85v3.57c0 .67.16 1.17.5 1.52.32.34.79.51 1.4.51.66 0 1.18-.2 1.57-.6.38-.4.57-.97.57-1.69v-3.31h.86ZM183.66 87.62c-.16.14-.36.25-.6.33-.24.07-.48.11-.74.11-.59 0-1.04-.16-1.36-.48a1.83 1.83 0 0 1-.48-1.36v-3.81h-1.13v-.72h1.13V80.3h.85v1.38h1.92v.72h-1.92v3.77c0 .37.1.66.27.86.2.2.47.29.82.29a1.51 1.51 0 0 0 .94-.33l.3.62ZM190.48 85.1h-5.28c.05.66.3 1.2.76 1.6.45.4 1.03.6 1.72.6a2.42 2.42 0 0 0 1.93-.83l.49.56c-.28.33-.63.59-1.06.77a3.5 3.5 0 0 1-1.38.26c-.65 0-1.22-.14-1.73-.4-.5-.29-.88-.67-1.16-1.16a3.27 3.27 0 0 1-.42-1.66c0-.61.13-1.16.4-1.65a2.97 2.97 0 0 1 2.68-1.55 2.88 2.88 0 0 1 2.66 1.55c.27.48.4 1.03.4 1.65v.27Zm-3.05-2.73c-.6 0-1.12.2-1.53.59-.41.38-.64.89-.7 1.51h4.48a2.25 2.25 0 0 0-.71-1.51c-.4-.4-.92-.59-1.54-.59ZM193.04 82.92c.2-.42.5-.74.9-.96.4-.21.88-.32 1.47-.32v.83l-.2-.01c-.67 0-1.2.2-1.57.6-.37.42-.56.99-.56 1.72V88h-.85v-6.31h.81v1.23ZM197.01 88.06a.62.62 0 0 1-.46-.2.66.66 0 0 1-.18-.46c0-.18.06-.34.18-.46.13-.12.28-.19.46-.19s.33.07.46.2c.12.11.19.27.19.45s-.07.34-.2.47a.62.62 0 0 1-.45.19Z" fill="#B1B1C5"/></g><defs><clipPath id="a"><path fill="#fff" d="M0 0h600v160H0z"/></clipPath></defs></svg>